<?xml version="1.0" standalone="no"?>
<!DOCTYPE svg PUBLIC "-//W3C//DTD SVG 20010904//EN"
 "http://www.w3.org/TR/2001/REC-SVG-20010904/DTD/svg10.dtd">
<svg version="1.0" xmlns="http://www.w3.org/2000/svg"
 width="654.000000pt" height="644.000000pt" viewBox="0 0 654.000000 644.000000"
 preserveAspectRatio="xMidYMid meet">
<metadata>
Created by potrace 1.16, written by Peter Selinger 2001-2019
</metadata>
<g transform="translate(0.000000,644.000000) scale(0.100000,-0.100000)"
fill="#000000" stroke="none">
<path d="M1552 5203 c9 -10 18 -34 22 -53 5 -28 2 -39 -15 -53 -16 -14 -24
-16 -35 -6 -8 6 -14 20 -14 30 0 24 -1 24 -44 -2 -19 -11 -40 -18 -46 -14 -6
4 -23 4 -39 0 -22 -5 -30 -13 -35 -35 -4 -23 -13 -31 -38 -38 -35 -9 -53 -41
-21 -38 23 1 23 -23 1 -37 -13 -9 -21 -7 -36 6 -10 9 -22 14 -25 10 -9 -9 22
-43 40 -43 7 0 13 -9 13 -20 0 -11 5 -20 11 -20 6 0 8 8 4 19 -3 10 1 23 9 30
8 6 17 27 20 45 7 37 50 81 69 69 7 -4 20 -6 30 -5 10 2 17 -3 17 -14 0 -12
-6 -15 -21 -11 -27 7 -43 -31 -23 -54 8 -8 15 -32 16 -51 3 -33 6 -36 31 -36
15 1 30 5 33 10 3 4 9 6 14 3 5 -3 11 -1 15 5 3 6 -1 13 -10 16 -9 4 -13 13
-10 24 3 9 -3 24 -15 35 -22 20 -26 50 -10 60 8 5 7 11 -1 21 -16 19 -4 44 21
44 22 0 26 -10 9 -27 -8 -8 -8 -13 0 -18 6 -3 14 1 17 10 5 12 9 13 20 4 12
-9 20 -7 42 12 15 13 30 28 33 33 4 4 16 5 28 1 34 -11 24 10 -14 28 -20 9
-35 23 -34 30 4 21 -12 47 -29 47 -14 0 -14 -2 0 -17z"/>
<path d="M1161 4876 c-12 -20 -24 -48 -25 -63 -3 -20 -9 -28 -22 -26 -23 2
-41 -22 -42 -58 -1 -24 3 -27 26 -25 14 2 28 9 30 16 3 9 -2 11 -17 7 -17 -4
-21 -2 -17 10 3 8 6 17 6 19 0 2 6 4 13 4 17 0 47 -36 47 -56 0 -9 6 -14 13
-11 6 2 11 10 9 16 -1 6 5 14 13 17 23 9 18 24 -9 24 -14 0 -28 5 -31 10 -3 6
1 10 9 10 9 0 16 5 16 10 0 6 7 10 15 10 8 0 15 7 15 15 0 8 -4 15 -10 15 -5
0 -10 -4 -10 -10 0 -5 -7 -10 -15 -10 -8 0 -15 9 -15 19 0 23 16 36 25 21 5
-8 11 -8 20 0 11 9 18 5 31 -15 16 -24 16 -26 -2 -40 -10 -7 -16 -17 -11 -21
4 -4 13 -2 19 4 17 17 28 15 28 -7 0 -12 -9 -21 -24 -25 -14 -3 -30 -20 -40
-41 -18 -38 -27 -42 -45 -21 -9 11 -28 13 -68 10 -31 -2 -58 -6 -61 -8 -2 -3
-6 -20 -7 -38 -2 -18 -4 -35 -4 -37 -1 -2 -7 2 -14 8 -13 10 -27 6 -27 -9 0
-3 23 -13 50 -20 55 -15 63 -31 25 -48 -21 -10 -25 -9 -25 3 0 8 -7 15 -15 15
-8 0 -15 -8 -15 -17 0 -15 -2 -14 -14 3 -21 28 -30 11 -15 -30 13 -37 39 -49
39 -19 0 13 3 14 11 6 9 -9 8 -16 -4 -27 -23 -23 -46 -19 -57 9 l-10 26 -29
-33 c-36 -41 -44 -74 -18 -72 10 1 16 -3 14 -10 -2 -6 -16 -11 -32 -11 -34 -1
-51 -34 -31 -61 15 -19 38 -11 30 11 -4 10 4 18 22 25 16 6 32 16 36 23 10 16
30 -41 23 -64 -8 -25 -25 -24 -25 1 0 11 -4 20 -9 20 -4 0 -8 -13 -7 -30 1
-21 6 -30 19 -30 21 0 23 -16 2 -24 -21 -8 -45 3 -45 20 0 19 -24 18 -40 -1
-7 -8 -21 -15 -31 -15 -11 0 -19 -4 -19 -9 0 -5 14 -9 30 -9 17 1 30 5 30 10
0 16 19 8 31 -13 10 -20 9 -21 -10 -16 -14 3 -24 0 -28 -9 -6 -17 -35 -18 -51
-2 -8 8 -14 5 -22 -16 -13 -35 -13 -36 5 -36 8 0 15 7 15 16 0 9 6 14 13 11 6
-2 11 -16 9 -31 -3 -26 11 -35 23 -16 10 16 22 12 28 -10 6 -22 -9 -38 -16
-18 -4 10 -7 10 -18 0 -11 -11 -10 -14 9 -18 12 -4 22 -13 22 -22 0 -12 -3
-13 -11 -5 -6 6 -26 9 -45 6 -38 -6 -46 11 -17 33 21 15 17 21 -17 26 -23 3
-25 0 -24 -37 1 -27 5 -40 15 -40 8 0 19 -4 26 -8 6 -4 14 -3 18 2 7 12 35 3
35 -11 0 -5 -19 -9 -42 -8 -85 4 -88 2 -88 -29 0 -17 -5 -33 -11 -37 -6 -3 -8
-16 -5 -28 3 -13 1 -38 -4 -56 -8 -27 -7 -36 5 -43 23 -12 18 -29 -6 -22 -19
6 -21 4 -16 -14 3 -11 1 -24 -4 -27 -6 -3 -7 -15 -4 -25 4 -11 2 -26 -4 -32
-11 -14 -9 -55 3 -76 5 -8 3 -16 -4 -21 -7 -5 -15 -19 -16 -32 -10 -69 -13
-64 36 -67 13 -1 20 -8 20 -21 0 -11 4 -20 9 -20 20 0 22 -40 4 -64 -14 -19
-25 -23 -50 -20 -24 3 -33 0 -33 -11 0 -9 9 -15 25 -15 16 0 25 -6 25 -16 0
-11 -5 -14 -16 -10 -24 9 -35 -3 -22 -24 9 -14 9 -22 -2 -34 -7 -9 -9 -20 -5
-24 4 -4 10 -1 12 6 7 17 27 15 46 -6 22 -24 22 -46 0 -38 -21 8 -53 -26 -53
-56 0 -13 6 -35 14 -50 9 -17 10 -30 4 -36 -6 -6 -6 -12 1 -16 15 -9 14 -47 0
-44 -6 2 -14 -3 -16 -9 -3 -7 0 -13 6 -13 6 0 11 -13 11 -28 0 -16 3 -32 7
-36 9 -9 14 -31 17 -81 2 -23 9 -51 15 -64 7 -13 11 -31 8 -40 -2 -10 2 -26 9
-36 8 -10 14 -29 14 -41 0 -13 5 -26 10 -29 8 -5 7 -12 -2 -23 -10 -12 -10
-16 -1 -19 7 -3 15 -20 19 -39 3 -19 10 -37 15 -40 5 -3 9 -16 9 -29 0 -12 7
-26 16 -29 11 -4 15 -14 11 -32 -3 -20 0 -28 14 -31 12 -4 19 -13 18 -27 -1
-11 -1 -28 0 -36 1 -17 45 -40 74 -40 39 0 61 -46 33 -69 -17 -15 -30 11 -13
28 15 15 7 20 -25 14 -26 -5 -40 -23 -18 -23 6 0 10 -4 10 -9 0 -5 5 -22 11
-38 10 -27 11 -27 24 -9 11 15 17 17 29 7 7 -6 18 -11 22 -10 19 4 44 -14 44
-32 0 -19 -15 -26 -24 -11 -2 4 -17 8 -32 7 -23 0 -27 -5 -28 -27 -1 -21 8
-34 36 -55 21 -16 38 -37 39 -48 3 -41 4 -46 15 -53 7 -4 13 -16 15 -26 2 -11
19 -26 36 -35 18 -9 32 -23 32 -31 -2 -27 13 -60 27 -60 8 0 14 7 14 15 0 29
19 14 22 -17 2 -24 12 -38 35 -53 18 -11 32 -26 33 -32 0 -18 -18 -16 -22 2
-2 9 -8 11 -16 6 -9 -5 0 -20 32 -53 46 -47 80 -66 90 -49 9 13 46 1 46 -15 0
-17 -22 -18 -37 -3 -7 7 -12 6 -16 -4 -3 -9 4 -19 20 -26 22 -10 28 -8 49 14
21 23 24 24 24 7 0 -11 -11 -31 -25 -45 -14 -14 -22 -28 -17 -31 5 -3 16 4 26
15 19 23 39 21 45 -6 2 -13 -1 -16 -13 -12 -10 4 -16 1 -16 -7 0 -8 9 -16 20
-19 13 -3 18 -10 14 -21 -3 -9 -1 -16 5 -16 6 0 11 7 11 15 0 8 7 15 15 15 8
0 15 7 15 15 0 8 3 15 8 15 11 0 43 -61 36 -71 -8 -14 -26 1 -20 17 3 8 -1 14
-10 14 -11 0 -14 -8 -12 -27 2 -17 8 -27 17 -25 21 4 49 -7 55 -23 3 -8 0 -14
-6 -12 -23 5 -17 -19 8 -30 23 -11 27 -10 31 7 5 21 23 28 23 10 0 -5 11 -10
25 -10 16 0 25 -6 25 -16 0 -13 -7 -15 -31 -10 -22 4 -29 2 -26 -7 2 -6 10
-11 17 -9 7 1 18 -2 24 -8 7 -5 16 -6 21 -2 4 4 3 -3 -3 -14 -17 -33 -3 -36
35 -7 29 22 38 25 51 15 10 -7 27 -16 40 -22 12 -5 22 -17 22 -26 0 -12 -6
-14 -28 -9 -19 4 -33 1 -41 -9 -10 -11 -7 -17 18 -29 27 -13 31 -13 50 6 18
19 21 19 21 4 0 -9 -5 -17 -11 -17 -6 0 -9 -6 -6 -12 2 -7 11 -12 20 -10 9 1
22 -6 29 -18 15 -24 34 -26 42 -5 3 8 10 15 16 15 7 0 8 -6 0 -19 -15 -29 -13
-32 15 -25 21 5 25 3 25 -17 1 -27 53 -59 96 -59 13 0 27 -7 30 -15 4 -8 13
-15 21 -15 8 0 26 -6 41 -14 50 -25 72 -29 72 -12 0 9 -7 16 -15 16 -8 0 -15
5 -15 11 0 7 9 9 24 5 15 -4 26 -1 29 7 2 6 8 9 12 4 5 -4 4 -12 -2 -18 -13
-13 6 -59 25 -59 7 0 19 -8 28 -19 18 -21 54 -17 54 6 0 22 25 9 26 -13 1 -10
2 -23 3 -29 0 -5 16 7 34 28 19 20 41 37 50 37 10 0 17 7 17 15 0 9 9 15 23
14 12 0 16 -3 9 -6 -7 -3 -18 -16 -23 -30 -7 -20 -5 -28 13 -44 19 -15 20 -20
9 -28 -7 -5 -11 -14 -7 -20 4 -6 14 -3 26 9 27 27 40 25 40 -4 0 -21 5 -24 35
-24 31 0 35 3 30 19 -4 13 -2 19 9 19 9 0 18 -11 22 -25 3 -14 12 -25 20 -25
10 0 11 6 4 25 -5 14 -7 32 -4 40 7 18 36 20 33 2 -4 -31 1 -38 20 -27 13 7
22 7 26 0 3 -6 -1 -12 -9 -15 -9 -3 -23 -7 -32 -10 -8 -3 -12 -9 -9 -15 10
-16 45 -12 45 5 0 23 38 18 55 -8 12 -19 23 -23 53 -22 20 1 46 -3 57 -10 31
-19 107 -2 118 27 3 9 10 6 22 -9 9 -13 26 -23 38 -23 26 0 73 45 57 55 -15 9
-12 25 5 25 11 0 15 -11 15 -40 0 -38 13 -54 23 -27 3 9 8 9 16 1 14 -13 116
-9 177 7 22 6 47 9 55 7 8 -1 29 10 46 26 26 23 30 32 21 43 -13 17 -11 19 30
28 20 4 32 3 32 -4 0 -6 -6 -11 -14 -11 -10 0 -14 -9 -13 -28 2 -21 -2 -26
-15 -24 -11 2 -18 -3 -18 -13 0 -17 16 -20 25 -4 4 6 13 8 20 5 8 -3 15 -1 17
3 5 14 68 24 68 12 0 -6 4 -11 9 -11 14 0 19 48 7 60 -8 8 -7 13 4 20 24 15
33 12 27 -10 -3 -11 -1 -23 5 -26 5 -3 12 3 15 15 3 12 13 21 24 21 20 0 26
-15 9 -25 -21 -13 -9 -25 25 -25 23 0 38 6 41 15 4 9 12 14 18 13 19 -4 176
46 176 56 0 5 -8 15 -17 22 -10 7 -15 16 -10 20 4 4 14 -1 22 -12 8 -10 15
-15 15 -10 0 5 7 3 15 -4 18 -15 38 -3 31 17 -6 13 -3 13 18 -1 24 -15 26 -15
36 3 17 33 12 44 -17 37 -19 -5 -23 -4 -14 3 8 5 11 16 8 25 -11 28 21 18 35
-11 10 -21 22 -29 46 -31 23 -2 32 1 32 11 0 10 7 13 18 10 12 -3 23 5 32 24
26 49 39 58 54 38 10 -14 15 -15 21 -5 4 7 2 16 -5 20 -7 4 -9 13 -6 19 10 16
36 13 36 -4 0 -21 11 -19 43 9 15 13 40 29 56 36 16 6 34 23 42 36 10 19 18
24 36 19 15 -3 29 1 43 15 11 11 26 20 34 20 8 0 23 11 34 25 11 14 25 25 31
25 6 0 11 9 11 21 0 16 4 19 19 14 17 -5 20 0 23 31 3 36 28 62 28 30 0 -9 5
-16 10 -16 6 0 10 9 10 20 0 13 7 20 20 20 11 0 20 6 20 13 0 6 13 21 29 32
22 14 27 23 19 32 -7 9 -7 17 1 27 8 10 9 16 1 21 -6 3 -8 11 -4 16 10 16 34
-11 34 -37 0 -15 6 -24 15 -24 11 0 13 8 9 30 -6 29 10 44 18 18 8 -22 28 3
34 43 6 33 10 40 25 36 26 -7 34 9 12 22 -25 14 -5 32 36 33 37 1 52 17 23 25
-21 5 -38 46 -22 51 18 6 10 22 -15 32 -22 9 -24 12 -13 30 7 11 16 20 19 20
17 0 31 -33 27 -61 -4 -25 -1 -32 19 -40 35 -13 43 -11 43 10 0 11 4 23 10 26
11 7 2 64 -13 82 -13 17 15 17 31 1 10 -10 14 -10 21 0 4 7 15 10 24 6 18 -7
24 11 7 21 -20 13 -10 27 15 21 15 -4 25 -2 25 5 0 6 -9 13 -21 16 -16 5 -19
11 -14 32 8 33 7 32 46 33 41 1 73 26 57 45 -6 7 -9 15 -7 17 2 1 15 10 28 19
15 10 25 28 28 47 4 41 20 70 38 70 14 0 19 20 16 67 -1 11 2 24 8 27 6 4 8
13 4 21 -3 10 2 15 17 15 17 0 20 4 15 20 -5 14 -2 20 9 20 17 0 21 15 7 25
-5 3 -13 0 -16 -6 -4 -5 -13 -8 -21 -5 -8 3 -14 1 -14 -4 0 -5 -13 -8 -30 -8
-33 1 -39 18 -14 39 12 9 17 10 23 1 5 -8 17 -9 40 -2 18 5 38 8 45 7 6 -1 10
8 8 19 -2 12 4 24 12 27 14 5 14 9 1 34 -21 39 -19 45 12 41 15 -2 28 2 30 10
3 7 -4 12 -17 12 -17 0 -21 5 -17 20 3 10 0 21 -6 23 -13 4 0 57 15 57 6 0 16
-7 23 -16 10 -14 13 -13 28 10 10 14 16 27 15 27 -2 1 -16 3 -32 5 -15 1 -37
11 -47 20 -23 21 -26 49 -3 40 9 -3 18 -6 20 -6 2 0 4 -7 4 -15 0 -19 19 -19
44 0 11 9 19 28 20 55 1 23 8 45 16 50 11 7 11 11 1 24 -9 11 -10 20 -4 29 14
16 23 106 12 113 -15 9 -10 44 6 44 11 0 13 8 9 30 -4 18 -1 36 6 45 7 8 9 16
4 16 -5 1 -15 2 -21 3 -22 2 -19 21 5 31 22 10 30 25 13 25 -17 0 -20 30 -6
57 17 32 19 53 6 53 -15 0 -20 38 -5 44 10 4 12 14 8 31 -3 14 -1 31 4 38 18
21 3 59 -19 52 -15 -5 -19 -1 -19 15 0 16 4 20 19 15 11 -3 22 -1 26 5 4 7 -2
14 -14 17 -20 5 -20 6 -4 19 20 15 14 17 -33 14 -18 -1 -35 3 -39 9 -9 15 -35
14 -35 -2 0 -7 -9 -18 -20 -25 -12 -7 -20 -8 -20 -2 0 5 -7 10 -15 10 -21 0
-19 19 3 27 9 3 24 12 33 20 11 10 23 11 40 5 13 -5 35 -9 48 -8 24 1 25 4 24
64 -1 70 -6 81 -28 62 -11 -9 -18 -10 -29 -1 -11 9 -19 7 -40 -14 -30 -30 -61
-32 -76 -5 -8 15 -17 19 -35 14 -30 -7 -33 8 -7 34 35 35 89 39 61 6 -10 -12
-8 -19 9 -36 19 -20 22 -20 28 -5 3 9 12 17 20 17 8 0 14 7 14 15 0 8 -4 15
-10 15 -5 0 -10 9 -10 20 0 12 -7 20 -17 20 -9 0 -14 3 -10 6 11 12 47 -8 47
-26 0 -25 41 -35 58 -13 14 20 16 59 2 68 -5 3 -10 19 -10 36 0 38 -19 38 -27
-1 -4 -24 -8 -28 -19 -19 -7 6 -12 21 -11 32 2 18 -3 21 -22 19 -16 -3 -22 1
-19 10 3 8 19 12 42 11 30 -1 36 2 34 15 -1 9 1 23 6 30 5 9 1 15 -13 19 -21
5 -30 33 -11 33 15 0 12 19 -5 37 -9 9 -13 23 -10 34 4 11 0 26 -9 35 -10 9
-14 24 -10 38 3 14 -1 27 -10 35 -9 8 -16 20 -16 27 0 8 -8 14 -18 14 -25 0
-34 11 -22 25 6 7 6 25 -1 51 -14 49 -27 64 -39 44 -6 -9 -10 -10 -10 -3 0 6
4 14 9 17 11 7 2 56 -11 56 -5 0 -16 -7 -24 -15 -19 -19 -45 -20 -38 -1 8 20
-28 29 -60 15 -33 -15 -24 -30 14 -22 34 6 42 -12 9 -20 -23 -6 -17 -27 7 -27
8 0 14 -8 14 -18 0 -28 10 -33 34 -17 29 21 38 19 34 -7 -4 -30 -50 -53 -77
-38 -28 15 -78 -5 -62 -24 7 -8 11 -18 10 -22 -3 -22 15 -54 31 -54 10 0 20
-10 23 -22 5 -18 9 -19 21 -9 10 8 21 9 31 4 14 -8 13 -11 -8 -20 -33 -15
-107 17 -107 46 0 11 -4 22 -9 25 -5 3 -7 15 -4 26 3 11 1 20 -5 20 -5 0 -12
9 -15 21 -3 13 -10 18 -17 14 -9 -5 -9 -10 -1 -18 15 -15 14 -30 -3 -24 -7 3
-21 -4 -30 -15 -14 -16 -25 -19 -53 -15 -24 4 -33 2 -30 -6 2 -7 10 -12 18
-12 8 0 16 -11 17 -24 l4 -24 -34 24 c-18 13 -36 28 -40 34 -11 15 -9 47 2 40
22 -14 31 8 9 23 -20 14 -23 14 -35 -4 -22 -32 -34 -44 -44 -44 -15 0 -12 16
5 30 23 19 18 29 -12 27 -26 -2 -28 1 -30 36 -2 27 2 37 13 37 10 0 13 7 8 25
-5 21 -3 25 15 25 12 0 21 6 21 15 0 18 26 20 36 3 4 -6 -2 -19 -14 -29 -12
-9 -22 -22 -22 -27 0 -6 -4 -12 -10 -14 -5 -1 -11 -14 -12 -27 -2 -18 2 -24
21 -27 20 -4 22 -1 17 21 -4 14 -2 25 3 25 12 0 41 -28 41 -40 0 -6 46 -7 69
-1 3 1 -4 7 -14 15 -11 8 -23 12 -27 10 -12 -8 -20 18 -9 29 14 14 14 27 1 27
-5 0 -10 -7 -10 -15 0 -17 -26 -20 -36 -4 -3 6 0 15 7 20 8 4 14 14 14 21 0 8
14 13 38 13 41 1 59 -11 33 -21 -24 -9 -19 -27 5 -21 18 5 20 2 15 -19 -7 -27
26 -74 39 -55 3 6 -1 14 -9 17 -9 3 -16 10 -16 15 0 14 26 10 40 -6 7 -8 22
-15 35 -15 17 0 22 6 22 30 0 17 -6 30 -13 30 -7 0 -10 -8 -7 -20 6 -23 -9
-26 -27 -5 -7 8 -9 23 -5 36 6 19 4 21 -14 16 -27 -7 -39 12 -18 28 21 15 22
25 2 25 -8 0 -15 -7 -15 -15 0 -8 -7 -15 -16 -15 -12 0 -15 6 -10 25 4 14 2
25 -4 25 -5 0 -10 -7 -10 -15 0 -8 -6 -15 -14 -15 -17 0 -28 24 -20 45 4 8 2
15 -4 15 -6 0 -12 -5 -14 -12 -5 -13 -28 -2 -28 13 0 5 8 13 18 16 9 4 23 15
31 26 7 10 19 16 27 13 7 -3 16 -1 19 4 11 18 35 10 35 -10 0 -23 -10 -26 -28
-8 -12 12 -12 11 -27 -37 -5 -17 11 -30 20 -15 9 15 25 12 25 -5 0 -8 7 -15
16 -15 14 0 14 2 3 16 -11 14 -10 18 9 32 l22 17 -24 28 c-13 15 -28 27 -35
27 -6 0 -11 5 -11 10 0 6 14 10 30 10 20 0 30 -5 30 -15 0 -12 7 -14 28 -9 54
12 101 64 50 56 -15 -3 -19 2 -17 20 3 29 -10 58 -25 58 -6 0 -23 7 -38 14
-30 16 -40 2 -13 -18 22 -16 8 -58 -16 -51 -13 4 -19 1 -19 -9 0 -17 -9 -20
-34 -10 -23 9 -20 24 5 24 42 0 11 24 -49 38 -62 13 -76 24 -46 36 13 5 14 9
4 21 -6 8 -9 19 -5 25 3 5 -1 10 -9 10 -12 0 -14 -7 -9 -30 3 -19 1 -30 -6
-30 -6 0 -11 -7 -11 -15 0 -8 14 -17 35 -21 19 -3 35 -10 35 -15 0 -5 7 -9 15
-9 17 0 20 -16 5 -25 -17 -10 -11 -25 10 -25 11 0 20 -2 20 -5 0 -9 -40 -45
-41 -37 -3 11 -6 35 -8 55 0 9 -7 17 -15 17 -9 0 -12 -7 -9 -20 3 -12 1 -20
-4 -18 -8 3 -73 -46 -73 -55 0 -3 10 -7 21 -10 15 -4 20 -11 15 -22 -3 -9 -6
-23 -6 -30 0 -9 -9 -12 -27 -10 -40 5 -40 5 -15 16 13 5 20 14 17 20 -5 8 -10
8 -18 0 -6 -6 -15 -11 -19 -11 -13 0 -9 28 5 33 6 2 9 8 5 12 -5 5 -16 1 -26
-8 -24 -22 -45 -21 -65 1 -20 22 -21 32 -6 32 7 0 18 8 25 18 11 14 16 15 33
5 13 -8 22 -9 26 -3 3 6 -6 15 -20 20 -36 14 -46 13 -61 -7 -8 -11 -13 -13
-14 -5 0 6 -7 12 -15 12 -9 0 -12 -6 -9 -15 4 -10 0 -15 -15 -15 -12 0 -21 -5
-21 -11 0 -6 9 -8 21 -4 20 7 21 4 17 -25 -4 -26 -2 -31 12 -27 25 6 50 -11
50 -33 0 -11 4 -20 9 -20 15 0 23 18 11 25 -5 3 -10 11 -10 16 0 13 21 7 22
-6 0 -23 19 -43 35 -39 12 3 22 -4 30 -23 18 -38 16 -45 -9 -41 -17 2 -22 9
-20 26 2 12 -2 22 -7 22 -11 0 -16 -20 -12 -54 1 -14 -4 -17 -18 -13 -14 3
-25 -3 -37 -22 -9 -14 -23 -30 -31 -34 -17 -10 -7 -28 11 -21 7 3 16 -2 20
-11 3 -9 10 -14 15 -10 6 3 8 12 4 20 -8 22 6 67 20 62 17 -5 19 -65 3 -96 -8
-14 -17 -34 -20 -45 -4 -10 -12 -16 -20 -13 -8 3 -17 3 -21 -1 -7 -7 -13 -9
-44 -11 -16 -1 -19 -8 -18 -43 1 -25 8 -48 17 -55 13 -10 13 -13 -4 -19 -13
-5 -23 -2 -31 9 -7 10 -18 17 -25 17 -9 0 -10 -3 -1 -13 7 -10 7 -17 0 -24 -6
-6 -8 -17 -4 -23 6 -9 10 -8 17 4 13 23 38 20 38 -4 0 -15 7 -20 24 -20 29 0
42 -16 27 -34 -15 -18 21 -46 50 -39 22 6 22 5 -5 -29 -15 -21 -23 -39 -17
-42 5 -4 15 2 21 11 7 12 13 14 16 7 3 -7 14 -9 26 -6 17 4 19 2 13 -17 -5
-17 -2 -21 13 -21 17 0 20 -7 21 -53 0 -49 -2 -53 -31 -66 -27 -12 -33 -12
-42 1 -6 9 -26 19 -44 22 -31 7 -41 19 -23 30 5 3 28 -1 51 -9 50 -18 50 -18
50 -7 0 5 -11 14 -25 20 -14 6 -24 15 -23 19 4 15 -23 53 -37 53 -8 0 -15 7
-15 15 0 8 -9 15 -20 15 -11 0 -20 7 -20 15 0 8 7 15 15 15 8 0 15 -5 15 -12
0 -9 3 -9 11 -1 15 15 -10 42 -37 40 -15 -2 -20 6 -22 36 -2 23 -8 37 -17 37
-8 0 -11 -7 -8 -20 4 -14 0 -20 -11 -20 -9 0 -16 3 -16 8 -1 4 -9 17 -20 30
-15 19 -23 21 -38 13 -30 -16 -35 -42 -13 -63 11 -10 23 -18 26 -18 4 0 13 -7
22 -15 14 -14 13 -18 -6 -34 -18 -16 -29 -41 -17 -41 11 0 66 56 66 68 0 18
34 11 38 -8 4 -22 -61 -69 -100 -72 -31 -3 -33 -1 -36 31 -3 27 0 33 12 28 23
-9 29 10 7 22 -26 14 -31 14 -31 -4 0 -8 -4 -15 -9 -15 -5 0 -9 -6 -8 -12 1
-36 -5 -48 -22 -48 -11 0 -21 -5 -23 -12 -2 -6 -15 -12 -29 -13 -18 -1 -25 -8
-27 -28 -3 -25 -32 -40 -32 -16 0 5 -5 7 -10 4 -8 -5 -7 -12 2 -22 10 -13 8
-18 -15 -35 -16 -11 -27 -29 -27 -43 0 -13 -8 -25 -17 -29 -10 -3 -24 -9 -30
-12 -8 -3 -17 5 -23 21 -5 14 -14 23 -20 20 -12 -7 -50 12 -50 25 0 6 9 6 25
0 15 -6 26 -6 30 0 4 6 -1 13 -10 16 -9 4 -14 13 -11 20 3 8 -5 19 -17 25 -32
17 -32 18 -11 34 26 20 44 19 44 -4 0 -10 7 -22 15 -25 9 -3 15 -11 14 -18 -3
-22 13 -78 22 -78 5 0 9 8 9 19 0 10 6 24 14 30 18 15 27 49 14 57 -5 3 -12
-3 -15 -15 -6 -25 -34 -28 -30 -3 5 31 18 43 45 42 15 -1 30 -1 35 0 4 1 12 3
17 4 6 0 9 6 8 11 -2 6 -5 9 -8 9 -3 -1 -16 -5 -28 -9 -21 -6 -23 -4 -17 14 5
15 2 21 -9 21 -9 0 -16 -9 -16 -20 0 -11 -7 -20 -15 -20 -18 0 -19 12 -3 28
18 18 3 25 -22 10 -18 -10 -24 -10 -27 0 -3 6 -11 12 -19 12 -8 0 -15 5 -15
10 -1 6 -2 16 -3 23 0 6 -10 12 -20 12 -11 0 -21 6 -24 13 -2 6 -8 12 -14 12
-5 0 -6 -9 -3 -20 4 -11 2 -20 -4 -20 -6 0 -11 -5 -11 -10 0 -6 10 -8 24 -4
28 7 73 -27 61 -45 -8 -14 -35 -14 -35 0 0 6 -11 9 -25 7 -14 -2 -25 -7 -25
-13 1 -5 8 -9 16 -7 8 2 14 -4 14 -13 0 -19 -30 -20 -56 0 -25 19 -40 19 -23
-1 19 -24 67 -46 74 -34 5 9 55 -35 55 -48 0 -2 -16 -2 -35 1 -26 4 -35 2 -35
-9 0 -8 7 -14 15 -14 8 0 15 -5 15 -11 0 -6 -6 -9 -14 -6 -20 8 -28 -4 -15
-19 6 -8 9 -21 5 -29 -3 -10 6 -26 27 -44 38 -35 32 -45 -28 -46 -49 0 -67
-10 -36 -20 12 -3 21 -12 21 -19 0 -8 7 -19 15 -26 18 -15 20 -40 4 -40 -12 0
-38 -29 -39 -42 0 -5 5 -8 10 -8 6 0 10 7 10 15 0 9 12 18 30 22 25 5 30 10
30 35 0 17 4 27 10 23 6 -3 10 -1 10 4 0 6 7 11 15 11 17 0 20 -16 5 -25 -5
-3 -10 -13 -10 -21 0 -9 -18 -33 -40 -54 -47 -45 -49 -56 -15 -62 29 -6 45 9
21 18 -9 3 -13 10 -10 15 7 12 44 11 44 -1 0 -5 5 -10 11 -10 8 0 10 12 6 35
-6 34 -5 35 26 35 22 0 28 -3 18 -9 -14 -9 -7 -50 13 -64 6 -5 1 -5 -11 -2
-14 4 -23 2 -23 -4 0 -6 -7 -11 -15 -11 -8 0 -19 -9 -25 -19 -13 -26 -13 -31
5 -31 8 0 15 -7 15 -15 0 -15 12 -20 22 -9 4 3 2 19 -2 35 -8 26 -6 30 8 27 9
-2 18 -13 20 -26 2 -13 10 -22 22 -22 15 0 27 -14 35 -42 2 -5 4 -9 5 -10 1
-2 4 -16 6 -31 4 -34 -19 -32 -24 2 -2 13 -9 20 -15 17 -7 -3 -20 -9 -29 -12
-10 -4 -18 -13 -18 -20 0 -8 -4 -14 -10 -14 -30 0 3 53 40 65 11 3 20 10 20
15 0 12 -17 22 -22 13 -1 -5 -16 -16 -33 -25 -16 -9 -30 -20 -30 -25 0 -4 -3
-13 -7 -19 -9 -13 15 -49 33 -49 7 0 14 -6 17 -12 2 -8 -5 -13 -18 -13 -15 0
-20 -5 -16 -15 3 -9 -3 -19 -14 -25 -24 -13 -26 -30 -5 -30 20 0 19 -16 -1
-24 -30 -11 -39 -6 -41 25 -2 22 5 37 24 55 l27 25 -25 22 c-14 12 -29 31 -33
42 -7 20 -8 20 -22 1 -20 -28 -18 -33 16 -39 27 -6 44 -37 20 -37 -5 0 -10 -7
-10 -15 0 -12 -10 -15 -42 -14 -24 1 -51 3 -60 6 -28 7 -21 25 10 23 49 -4 72
0 72 10 0 6 -16 10 -36 10 -30 0 -34 3 -29 19 3 11 1 23 -6 26 -8 6 -8 9 1 15
17 10 -6 46 -48 71 -48 31 -61 17 -13 -14 22 -15 41 -34 41 -42 0 -17 -11 -19
-26 -6 -5 6 -16 5 -27 -4 -15 -11 -16 -17 -7 -34 13 -24 30 -28 30 -6 0 18 26
20 36 3 4 -6 0 -16 -9 -23 -10 -7 -17 -17 -17 -24 0 -16 -20 -14 -26 4 -4 8
-10 12 -15 9 -14 -8 -10 -24 6 -24 8 0 15 -7 15 -16 0 -10 -7 -14 -20 -12 -10
2 -26 -6 -35 -17 -15 -19 -16 -18 -10 20 4 22 11 45 16 52 6 7 6 13 1 17 -5 3
-10 24 -10 47 -1 31 2 39 11 30 14 -14 27 -14 27 -1 0 6 -12 15 -26 20 -22 9
-24 13 -14 25 7 8 9 15 4 16 -5 1 -18 2 -29 3 -23 1 -29 46 -7 54 6 2 12 -3
12 -11 0 -18 41 -30 54 -17 7 7 5 10 -5 10 -9 0 -30 13 -48 29 -17 16 -40 28
-49 27 -9 0 -17 6 -17 14 0 16 13 17 58 5 17 -5 27 -3 27 4 0 6 -8 11 -19 11
-11 0 -23 12 -31 30 -8 18 -19 29 -28 28 -10 -2 -19 9 -25 30 -9 29 -27 45
-27 22 0 -5 -9 -14 -21 -20 -16 -9 -20 -9 -17 4 2 8 -1 15 -7 15 -5 0 -9 -7
-7 -15 5 -24 -59 -19 -65 6 -3 10 -16 26 -30 35 -20 13 -22 19 -12 31 15 18 3
32 -13 16 -16 -16 -30 -15 -26 2 2 8 -1 14 -6 13 -15 -3 -16 -47 -1 -47 18 0
75 -51 75 -67 0 -7 5 -13 11 -13 6 0 9 -7 6 -15 -9 -23 11 -28 23 -5 13 25 30
26 30 1 0 -28 -26 -44 -60 -37 -17 3 -30 1 -30 -4 0 -6 7 -10 15 -10 8 0 24
-9 35 -20 16 -16 25 -18 40 -10 28 15 39 12 33 -10 -3 -11 -1 -20 5 -20 9 0
28 64 24 81 -2 10 48 18 53 9 3 -4 -2 -10 -10 -14 -8 -3 -15 -12 -15 -21 0 -8
-5 -15 -10 -15 -17 0 13 -39 32 -42 12 -2 15 -7 9 -17 -8 -12 -12 -12 -25 -2
-16 14 -20 9 -17 -20 1 -10 -12 -27 -29 -39 -30 -21 -32 -21 -51 -5 -20 19
-26 45 -9 45 6 0 13 -7 16 -15 5 -11 10 -12 25 -2 22 14 26 32 5 24 -8 -3 -20
0 -26 8 -11 13 -22 14 -52 1 -18 -8 -38 -1 -38 15 0 5 9 9 20 9 11 0 20 5 20
10 0 6 -11 10 -25 10 -15 0 -36 11 -49 25 -23 24 -25 24 -70 11 -25 -8 -46
-13 -47 -13 0 1 -2 17 -2 35 -1 17 -6 32 -12 31 -5 0 -9 -7 -7 -15 2 -8 -2
-30 -7 -50 -10 -38 2 -73 24 -70 6 0 18 -14 27 -33 24 -48 35 -58 50 -43 9 9
9 12 0 12 -6 0 -19 16 -28 36 -10 20 -26 39 -35 41 -19 5 -36 40 -25 51 4 3
11 1 17 -5 8 -8 18 -7 37 3 15 8 32 14 39 14 13 0 68 -48 62 -54 -11 -11 -54
-10 -54 2 0 6 -4 12 -10 12 -5 0 -9 -10 -9 -22 0 -20 4 -23 32 -20 40 4 57 -5
42 -23 -6 -8 -17 -12 -25 -9 -22 9 -26 -12 -5 -31 16 -15 22 -15 35 -5 13 11
15 9 15 -13 0 -14 -7 -27 -15 -31 -8 -3 -15 -12 -15 -21 0 -19 -29 -20 -36 0
-4 8 -1 22 6 30 10 12 9 15 -4 15 -9 0 -16 -4 -16 -10 0 -5 -9 -10 -20 -10
-11 0 -20 -4 -20 -10 0 -5 4 -10 10 -10 5 0 20 -11 34 -25 15 -15 31 -22 40
-19 23 9 20 -9 -4 -23 -15 -10 -25 -9 -49 5 -17 9 -31 23 -31 30 0 7 -9 22
-19 33 l-19 21 -11 -20 c-6 -12 -11 -28 -11 -36 0 -21 -20 -20 -36 2 -12 15
-13 14 -14 -16 0 -34 -15 -46 -47 -40 -16 3 -15 5 6 25 14 13 19 23 12 28 -6
3 -11 1 -11 -4 0 -20 -25 -11 -53 19 -19 20 -26 36 -22 49 4 14 -1 20 -24 24
-25 5 -28 10 -24 29 6 23 6 23 -15 4 -22 -19 -22 -19 -22 1 0 11 3 23 7 27 4
4 8 15 8 24 0 23 38 27 75 9 17 -9 32 -11 36 -6 3 5 -1 9 -9 9 -22 0 -58 45
-60 76 -2 23 2 30 21 32 20 3 31 30 16 44 -16 16 -65 -62 -57 -91 5 -20 -10
-30 -21 -13 -3 5 -15 8 -28 7 -17 -1 -24 -9 -26 -28 -2 -15 1 -27 7 -27 6 0
11 9 11 20 0 11 5 20 10 20 15 0 12 -53 -4 -75 -7 -10 -11 -26 -9 -35 4 -17
58 -44 81 -41 9 1 11 -9 8 -35 -6 -45 1 -59 20 -43 11 9 14 8 14 -5 0 -9 7
-16 16 -16 10 0 14 -7 12 -22 -2 -17 3 -24 18 -26 14 -2 36 -25 60 -60 20 -31
39 -51 41 -45 3 7 0 21 -6 32 -15 28 -14 31 14 31 21 0 25 -5 25 -29 0 -17 -4
-32 -10 -36 -5 -3 -7 -12 -4 -19 3 -7 -2 -16 -11 -20 -18 -7 -11 -27 8 -22 48
15 49 16 37 31 -18 22 -4 65 21 65 15 0 19 5 14 19 -4 13 0 20 16 24 11 3 18
10 14 16 -9 16 4 13 21 -3 18 -19 18 -36 -1 -36 -9 0 -15 -6 -14 -12 4 -33 -2
-58 -15 -58 -8 0 -17 7 -20 16 -3 8 -11 12 -17 9 -17 -11 28 -47 54 -43 18 2
22 9 22 43 0 41 3 43 43 30 21 -7 32 -35 13 -35 -5 0 -11 -8 -15 -17 -3 -10
-9 -24 -12 -30 -4 -8 2 -13 15 -13 12 0 21 -4 21 -10 0 -5 -11 -10 -25 -10
-14 0 -25 5 -25 10 0 21 -20 9 -36 -21 -12 -25 -20 -30 -37 -24 -85 26 -99 27
-121 15 -20 -10 -28 -9 -50 5 -28 19 -86 28 -86 15 0 -5 5 -10 11 -12 16 -5 1
-48 -17 -48 -8 0 -14 7 -14 16 0 26 -24 10 -43 -29 -9 -20 -20 -37 -25 -37 -4
0 -7 -19 -7 -42 -1 -43 -10 -54 -33 -40 -10 7 -10 15 -2 37 10 25 8 31 -11 46
-12 9 -19 21 -15 28 10 16 36 14 36 -4 0 -8 5 -15 10 -15 6 0 10 5 10 12 0 6
7 20 17 30 26 29 33 105 15 161 -16 51 -12 68 13 47 21 -17 24 -12 29 43 4 36
1 47 -10 47 -8 0 -15 5 -15 10 -1 6 -3 13 -4 18 -2 4 -6 17 -10 30 -4 12 -12
22 -17 22 -6 0 -7 -8 -3 -17 16 -42 17 -73 3 -73 -7 0 -20 -9 -28 -20 -17 -24
-43 -26 -60 -5 -16 20 -3 40 16 24 8 -6 18 -9 22 -5 4 4 0 13 -8 19 -17 13
-25 77 -9 77 9 0 19 -20 33 -64 12 -36 17 -8 6 33 -10 36 -14 41 -41 41 -26 0
-29 -2 -23 -25 4 -18 -1 -37 -20 -65 -22 -34 -24 -43 -14 -60 9 -14 19 -18 36
-13 21 5 23 2 20 -18 -2 -19 -8 -24 -31 -22 -15 1 -27 -2 -27 -8 0 -5 11 -9
25 -9 18 0 25 -5 25 -20 0 -12 7 -20 18 -20 47 -1 81 -81 42 -100 -93 -47 -91
-46 -101 -28 -5 10 -16 15 -24 12 -8 -4 -15 -1 -15 4 0 16 39 25 55 12 10 -8
15 -8 22 3 4 8 16 16 26 18 26 6 26 22 -1 24 -13 1 -27 -5 -32 -14 -7 -12 -11
-13 -21 -4 -6 7 -24 9 -39 6 -19 -3 -29 0 -33 11 -5 13 2 16 43 16 47 0 50 1
50 26 0 23 -3 25 -24 20 -15 -4 -28 -1 -32 6 -5 7 -10 4 -16 -11 -4 -12 -12
-19 -18 -16 -16 10 -12 45 5 45 8 0 15 5 15 10 0 6 -6 10 -14 10 -7 0 -16 10
-19 22 -9 34 -20 13 -21 -39 -1 -36 -5 -48 -16 -48 -8 0 -19 -6 -23 -12 -13
-21 -24 -15 -31 19 -4 22 -2 37 9 47 13 14 15 13 15 -7 0 -14 6 -22 16 -22 11
0 14 5 10 16 -3 9 -6 20 -6 25 0 17 -45 9 -63 -11 -23 -27 -37 -25 -37 4 0 19
7 26 30 31 17 4 30 10 30 15 0 16 -15 18 -39 6 -35 -19 -68 -9 -80 27 -15 41
-14 67 3 67 19 0 26 -21 14 -42 -6 -13 -5 -18 6 -18 7 0 16 7 20 15 6 17 46
21 46 5 0 -5 -4 -10 -10 -10 -5 0 -10 -7 -10 -15 0 -17 25 -20 35 -5 11 17 32
11 38 -12 5 -16 9 -19 19 -10 18 15 43 10 68 -13 23 -21 27 -8 6 20 -9 13 -25
19 -50 18 -38 -1 -50 15 -17 24 11 3 18 10 15 16 -2 7 9 21 26 32 20 13 26 23
19 30 -7 7 -13 5 -18 -4 -5 -8 -20 -15 -33 -16 -18 -1 -22 -7 -20 -27 2 -19
-2 -27 -17 -31 -21 -5 -26 5 -23 46 1 9 -5 17 -13 17 -9 0 -12 -6 -9 -15 4 -8
2 -15 -4 -15 -5 0 -12 9 -15 21 -3 12 -10 18 -16 15 -6 -4 -8 -13 -4 -21 8
-22 -3 -18 -32 11 l-27 27 21 20 c16 17 23 19 33 9 19 -19 28 -14 28 18 0 35
-8 37 -36 12 -28 -27 -56 -35 -66 -20 -12 20 -9 58 6 74 19 19 36 18 36 -2 0
-11 6 -14 23 -9 12 4 26 11 31 15 13 12 -21 43 -40 36 -10 -4 -14 0 -12 11 2
9 -3 18 -11 21 -9 3 -11 -1 -7 -16 8 -26 -31 -53 -44 -31 -10 15 10 49 27 49
7 0 13 5 13 11 0 5 4 8 9 5 16 -10 40 38 29 58 -5 9 -7 24 -4 33 6 14 9 13 26
-5 11 -12 20 -30 20 -42 0 -11 5 -20 10 -20 15 0 12 48 -2 53 -10 3 -10 7 0
19 9 11 10 18 2 23 -5 3 -10 1 -10 -4 0 -6 -5 -11 -11 -11 -7 0 -9 9 -5 23 4
19 0 26 -20 36 -26 11 -25 31 2 31 8 0 14 5 14 10 0 13 -17 13 -25 1 -3 -5
-19 -12 -35 -16 -17 -4 -30 -11 -30 -16 0 -6 9 -8 19 -4 13 4 27 -1 41 -15 26
-26 18 -40 -23 -41 -28 0 -29 -1 -11 -9 29 -11 28 -78 -1 -94 -10 -6 -25 -17
-33 -23 -20 -19 -34 -16 -27 7 5 15 2 20 -10 20 -12 0 -16 6 -12 20 3 13 0 20
-9 20 -7 0 -11 -6 -8 -14 3 -9 -3 -17 -15 -21 -30 -9 -17 -23 15 -17 20 4 25
1 22 -9 -2 -8 -17 -15 -33 -17 -15 -2 -34 -10 -42 -18 -8 -8 -21 -14 -29 -14
-8 0 -14 -4 -14 -10 0 -16 36 -12 50 5 24 29 34 -1 11 -33 -31 -44 -25 -52 9
-12 16 19 30 43 30 53 0 9 6 17 14 17 23 0 28 -17 11 -33 -20 -21 -19 -27 5
-27 14 0 20 -7 20 -23 0 -12 9 -40 20 -62 11 -22 16 -43 11 -49 -4 -6 -7 -33
-6 -59 2 -40 0 -47 -14 -45 -9 2 -17 13 -19 26 -2 14 -10 22 -22 22 -25 0 -36
-18 -16 -26 9 -3 16 -12 16 -20 0 -17 -5 -17 -30 -4 -23 12 -50 3 -50 -17 0
-10 5 -11 16 -5 10 6 25 5 40 -2 26 -12 28 -15 15 -35 -7 -11 -13 -10 -35 4
-37 25 -47 8 -12 -20 19 -15 27 -29 23 -39 -4 -10 -1 -19 8 -22 20 -8 20 -54
0 -54 -8 0 -15 -4 -15 -10 0 -18 -42 -11 -47 9 -5 21 -31 18 -70 -7 -22 -14
-43 -10 -43 9 0 5 9 9 20 9 22 0 27 15 8 26 -7 5 -5 11 7 21 15 10 16 16 7 25
-7 7 -12 20 -12 30 0 15 5 17 28 12 27 -7 27 -7 7 13 -11 10 -28 22 -38 26
-11 4 -21 16 -24 27 -3 11 -9 20 -14 20 -5 0 -7 -11 -3 -25 5 -19 2 -25 -10
-25 -10 0 -19 11 -22 30 -6 28 -24 43 -24 20 0 -5 -7 -10 -15 -10 -8 0 -15 4
-15 9 0 5 -11 11 -24 13 -27 5 -75 -25 -57 -36 12 -8 15 -27 4 -24 -5 1 -19
-4 -32 -11 -17 -9 -20 -16 -12 -24 8 -8 18 -4 36 13 20 19 27 21 40 10 23 -19
19 -43 -5 -37 -12 3 -33 -1 -48 -9 -37 -19 -42 -18 -42 11 0 18 -5 25 -19 25
-10 0 -21 6 -24 14 -8 19 3 28 19 15 9 -7 19 -3 38 16 30 30 25 56 -5 29 -10
-9 -27 -14 -37 -12 -23 6 -45 -25 -37 -52 3 -10 15 -20 25 -23 11 -3 20 -10
20 -16 0 -14 -37 -15 -45 -1 -9 15 -25 12 -25 -5 0 -18 -16 -20 -26 -3 -4 6
-2 14 4 16 15 5 16 52 2 52 -5 0 -10 -9 -10 -20 0 -23 -22 -26 -40 -5 -19 23
-5 42 38 49 22 3 42 10 44 15 1 6 17 12 33 14 28 3 30 7 29 42 -1 37 -24 65
-24 30 0 -22 -21 -14 -31 12 -6 17 -4 20 10 16 12 -3 20 2 23 15 7 25 -9 42
-39 42 -20 0 -22 4 -17 25 4 15 2 25 -5 25 -6 0 -11 -9 -11 -21 0 -11 -9 -32
-20 -46 -15 -19 -19 -35 -14 -58 6 -34 -12 -58 -26 -35 -4 7 -16 9 -29 5 -18
-5 -21 -2 -21 25 0 18 -4 29 -10 25 -6 -3 -10 -22 -10 -41 0 -36 -13 -45 -28
-18 -6 11 -5 35 4 66 12 48 12 49 -12 58 -13 5 -24 16 -24 25 0 8 -9 15 -20
15 -23 0 -26 10 -8 28 6 6 8 15 4 19 -4 5 -14 -1 -22 -11 -13 -19 -14 -18 -14
15 0 19 5 41 10 49 6 10 10 11 10 3 0 -7 7 -13 15 -13 9 0 15 9 15 25 0 36 27
32 32 -5 3 -20 0 -30 -9 -30 -7 0 -13 -7 -13 -15 0 -18 5 -18 30 -5 17 9 17
13 4 62 -7 29 -14 54 -14 56 0 2 10 2 23 0 16 -2 21 -9 19 -26 -2 -19 2 -22
18 -17 14 5 20 2 20 -9 0 -9 4 -16 9 -16 14 0 22 43 9 51 -6 4 -8 12 -4 17 4
6 1 20 -5 31 -10 15 -9 24 4 45 22 32 21 36 -2 36 -11 0 -23 9 -26 20 -4 11
-11 18 -16 14 -6 -3 -21 -3 -35 0 -19 5 -24 11 -19 26 7 22 -5 26 -22 9 -16
-16 -63 15 -63 41 0 11 -6 20 -13 20 -19 0 -40 47 -25 56 6 4 16 0 23 -9 7
-10 19 -14 34 -10 14 4 26 1 31 -8 5 -7 12 -10 17 -5 4 4 0 12 -10 17 -23 14
-22 39 3 39 11 0 20 5 20 10 0 6 -11 10 -25 10 -18 0 -25 -5 -25 -19 0 -26
-20 -38 -31 -19 -6 11 -22 13 -61 10 -29 -2 -54 -5 -56 -6 -1 -2 3 -14 10 -27
8 -15 20 -23 30 -21 12 2 22 -6 30 -25 7 -15 20 -33 28 -40 12 -9 13 -14 3
-24 -18 -18 -16 -30 2 -23 8 4 15 12 15 19 0 11 5 11 28 -1 15 -7 33 -14 40
-14 20 0 13 -27 -9 -33 -12 -3 -18 -10 -15 -15 4 -6 20 -6 46 0 43 11 70 0 70
-29 0 -10 -10 -13 -40 -9 -54 7 -51 -7 5 -22 28 -7 45 -18 45 -27 0 -20 -12
-19 -38 5 -12 12 -23 16 -27 10 -8 -13 -45 -13 -45 0 0 6 -4 10 -10 10 -5 0
-10 -7 -10 -16 0 -12 -7 -15 -25 -12 -35 7 -42 -10 -9 -22 21 -8 29 -8 36 2 5
9 8 7 8 -8 0 -15 -8 -23 -25 -26 -28 -6 -68 18 -62 35 2 7 -3 17 -12 24 -14
11 -14 13 4 27 19 13 19 15 3 21 -10 4 -18 13 -18 21 0 8 -10 14 -22 14 l-22
0 21 21 21 21 21 -21 c11 -11 24 -35 29 -53 4 -18 12 -32 18 -30 16 5 3 43
-31 91 -18 25 -36 56 -39 69 -8 26 -21 29 -30 6 -9 -24 -27 -6 -20 22 3 13 2
24 -4 24 -18 0 -21 -53 -4 -67 15 -11 15 -14 2 -22 -18 -12 -40 4 -40 31 0 10
-7 21 -15 24 -23 9 -18 21 16 33 17 6 28 15 24 20 -7 13 -36 3 -53 -18 -12
-15 -15 -14 -28 3 -7 11 -17 17 -20 13 -4 -4 5 -18 20 -32 32 -30 47 -75 39
-116 -5 -28 -8 -29 -42 -23 -37 7 -91 48 -91 70 0 14 38 29 48 19 4 -4 -1 -11
-11 -17 -18 -9 -18 -10 0 -24 10 -7 32 -14 49 -14 28 0 30 2 26 30 -3 21 -10
30 -23 30 -12 0 -19 7 -19 18 0 19 -18 42 -33 42 -4 0 -6 -8 -2 -19 9 -29 -42
-38 -68 -12 -18 18 -22 18 -43 4 -29 -19 -21 -38 8 -20 16 9 22 9 25 0 3 -7
11 -13 19 -13 19 0 18 -29 -1 -37 -9 -3 -25 3 -35 12 -18 16 -20 16 -20 2 0
-22 -16 -30 -38 -18 -14 8 -19 23 -20 65 -1 31 3 56 8 56 6 0 10 -7 10 -15 0
-19 17 -19 54 0 15 8 34 15 41 15 13 0 37 45 28 54 -4 3 -12 -3 -20 -14 -16
-23 -43 -27 -43 -5 0 16 31 39 68 50 16 5 22 2 22 -9 0 -9 4 -16 8 -16 5 0 7
18 6 39 -2 41 -27 90 -38 72 -4 -5 -2 -12 4 -16 22 -14 10 -43 -20 -50 -38 -8
-84 -64 -68 -83 19 -22 -5 -32 -29 -13 -27 22 -28 64 -1 55 10 -3 18 -1 18 5
0 6 -4 11 -9 11 -5 0 -13 9 -16 20 -3 11 -15 20 -25 20 -13 0 -19 9 -22 36 -2
19 0 38 5 41 5 3 -8 22 -28 43 -38 39 -39 60 -5 60 10 0 22 4 25 10 3 5 20 8
38 6 29 -3 32 -6 29 -32 -2 -16 -5 -31 -5 -34 -1 -3 3 -6 8 -7 10 -3 11 2 14
40 0 9 8 17 16 17 8 0 15 5 15 10 0 6 -6 10 -14 10 -21 0 -30 19 -16 35 10 12
9 16 -4 21 -9 3 -16 13 -16 21 0 10 -6 13 -16 9 -13 -5 -15 1 -12 32 3 33 1
37 -20 36 -17 0 -21 4 -17 15 4 9 -7 26 -27 44 -21 19 -29 31 -20 34 16 6 15
23 -2 23 -8 0 -17 7 -20 16 -5 14 -8 14 -23 -2 -10 -9 -17 -26 -18 -37 0 -11
-6 -22 -12 -24 -18 -6 -16 17 5 58 14 27 16 43 9 72 -5 20 -13 37 -19 37 -5 0
-7 -12 -3 -28 5 -25 3 -28 -17 -27 -17 2 -22 8 -21 24 2 11 -2 21 -7 21 -6 0
-10 -4 -10 -9 0 -9 -49 -25 -56 -18 -9 8 9 37 22 37 21 0 17 18 -6 30 -11 6
-20 9 -21 8 0 -2 -10 -32 -22 -67 -23 -68 -47 -92 -47 -47 0 31 -15 35 -23 6
-6 -22 -36 -27 -55 -8 -7 7 -12 8 -13 2 -1 -5 -2 -17 -3 -26 -1 -18 -21 -26
-21 -9 0 5 -3 13 -7 17 -13 13 -9 34 7 34 33 0 95 26 95 39 0 11 4 10 13 -4
20 -26 29 -5 21 45 -7 41 -18 43 -27 5 -5 -19 -5 -19 -12 3 -4 12 -14 22 -21
22 -8 0 -14 6 -14 14 0 10 11 13 41 10 38 -3 40 -2 33 19 -3 12 -18 32 -33 44
-26 22 -26 22 -3 23 13 0 22 -6 22 -15 0 -15 38 -40 47 -31 4 3 -1 14 -11 24
-9 11 -14 26 -10 36 5 14 2 16 -20 10 -16 -4 -26 -2 -26 4 0 6 16 14 35 18 48
9 44 24 -5 18 -30 -4 -42 -1 -46 11 -3 8 -15 15 -25 15 -20 0 -48 45 -36 57 4
3 15 -1 25 -10 10 -10 23 -17 29 -17 5 0 18 -9 28 -20 10 -11 22 -17 27 -14 5
3 0 16 -11 28 -12 12 -21 28 -21 35 0 7 -7 10 -19 6 -10 -3 -24 1 -31 10 -9
11 -16 12 -25 5 -7 -6 -20 -8 -29 -4 -17 7 -22 34 -6 34 6 0 10 7 10 15 0 22
-11 18 -37 -12 -13 -14 -26 -23 -30 -19 -4 4 -1 11 7 16 11 7 12 12 4 20 -9 9
-17 2 -33 -24z m329 -416 c0 -4 14 -10 32 -14 44 -9 28 -19 -34 -21 -47 -2
-54 -5 -70 -33 -9 -17 -13 -34 -8 -37 5 -3 16 8 25 25 18 35 35 35 50 2 12
-28 29 -29 20 -2 -5 14 -2 20 9 20 9 0 16 -7 16 -15 0 -13 8 -32 27 -64 2 -2
12 4 23 14 16 14 23 16 32 7 7 -7 20 -12 30 -12 12 0 18 -7 18 -21 0 -16 -4
-19 -22 -13 -13 3 -28 10 -34 15 -15 12 -26 -1 -14 -16 7 -8 4 -18 -10 -30
-24 -22 -39 -12 -22 15 16 26 -1 34 -21 9 -14 -15 -15 -24 -7 -40 6 -10 8 -24
5 -29 -8 -13 -35 -13 -35 0 0 6 -9 10 -21 10 -11 0 -17 5 -14 10 4 6 11 8 16
5 5 -4 12 2 16 12 4 10 9 20 12 23 16 13 30 50 21 55 -5 3 -16 -10 -26 -30
-17 -37 -29 -44 -37 -21 -3 7 -19 23 -35 35 l-30 21 -23 -21 -24 -20 32 6 c25
5 34 2 47 -17 12 -17 13 -24 4 -27 -7 -2 -22 -13 -32 -24 -18 -18 -18 -20 -2
-29 22 -12 10 -31 -15 -23 -11 4 -19 2 -19 -4 0 -6 7 -11 15 -11 8 0 15 -6 15
-14 0 -8 -6 -13 -12 -12 -7 0 -15 -3 -18 -9 -3 -5 3 -10 13 -10 10 0 21 -4 25
-10 20 -28 92 -47 92 -25 0 6 -7 10 -16 10 -10 0 -14 6 -11 14 6 16 -13 66
-25 66 -10 0 -10 -14 -1 -24 14 -13 13 -46 -1 -46 -30 0 -35 59 -7 84 28 26
56 17 56 -18 1 -17 10 -35 25 -46 35 -27 48 -12 14 16 -22 17 -26 25 -17 34 9
10 18 8 40 -7 15 -11 34 -18 41 -16 14 5 16 -13 2 -22 -18 -11 -10 -26 10 -20
25 8 25 4 -1 -41 l-20 -36 24 6 c32 8 62 -24 53 -57 -8 -32 -36 -44 -36 -17 0
11 5 20 11 20 5 0 7 5 4 10 -4 6 -21 -4 -41 -24 -51 -51 -110 -58 -63 -7 14
15 27 20 41 15 14 -4 19 -2 16 7 -7 22 -49 17 -74 -10 -13 -14 -24 -32 -24
-39 0 -18 -34 -11 -38 8 -1 9 10 21 28 28 16 8 30 20 30 28 0 17 -12 18 -28 2
-10 -10 -15 -10 -21 1 -5 8 -16 11 -30 6 -15 -4 -21 -2 -21 8 0 9 5 17 12 19
7 3 8 9 3 18 -6 10 -11 10 -21 -4 -16 -23 -37 -11 -28 16 4 14 2 19 -6 16 -7
-2 -14 -16 -16 -32 -4 -38 -17 -51 -53 -54 -25 -2 -31 1 -31 19 0 16 4 19 21
14 14 -5 25 -1 34 12 12 16 11 21 -12 41 -27 23 -53 29 -53 13 0 -5 6 -11 13
-14 8 -3 9 -8 1 -16 -8 -9 -18 -8 -39 3 -26 13 -32 13 -56 -1 -16 -10 -31 -14
-34 -11 -9 9 18 48 32 48 7 0 13 9 13 21 0 12 5 19 13 16 6 -2 12 -12 12 -22
0 -10 6 -20 13 -23 6 -2 12 2 12 9 0 6 8 18 18 25 16 13 16 14 -5 20 -12 3
-26 19 -32 35 -7 19 -15 27 -25 23 -17 -7 -56 12 -56 27 0 6 9 7 23 3 38 -12
77 -12 77 2 0 7 3 20 7 30 4 12 2 15 -8 12 -8 -3 -13 -11 -11 -18 3 -13 -35
-10 -70 4 -12 6 -21 0 -33 -23 -9 -18 -23 -31 -34 -31 -11 0 -21 -5 -23 -12
-3 -8 -12 -4 -26 10 -12 12 -19 23 -14 23 4 1 12 2 17 4 6 1 22 3 37 3 16 1
27 5 26 10 -3 15 15 42 29 42 10 0 12 7 9 20 -3 11 -9 29 -12 40 -4 14 -1 20
11 20 12 0 16 6 12 20 -3 13 0 20 9 20 18 0 31 -30 17 -39 -5 -3 -13 -17 -16
-31 -4 -19 0 -29 18 -42 20 -15 24 -16 29 -2 3 8 10 13 15 9 5 -3 12 -1 15 4
4 5 2 12 -3 15 -5 4 -12 2 -16 -4 -12 -20 -37 -11 -33 13 4 28 43 35 69 11 18
-16 18 -27 6 -98 -1 -5 3 -10 9 -13 26 -9 26 93 1 125 -9 11 -6 13 13 10 20
-2 26 2 28 19 3 22 31 27 48 10 12 -12 24 -8 24 8 0 9 7 18 15 21 8 4 15 12
15 18 0 7 13 13 30 13 17 0 30 -4 30 -7z m3530 -260 c12 -23 32 -18 23 5 -3
10 2 15 17 15 13 0 24 -8 27 -20 3 -11 9 -20 13 -20 4 0 8 -12 8 -26 0 -18 -7
-28 -19 -31 -11 -3 -19 -9 -19 -14 0 -5 -7 -9 -15 -9 -8 0 -15 -4 -15 -10 0
-5 5 -10 10 -10 6 0 10 -7 10 -15 0 -8 -9 -15 -20 -15 -11 0 -20 -4 -20 -10 0
-5 7 -10 16 -10 11 0 14 -5 10 -16 -3 -9 -6 -22 -6 -30 0 -8 -7 -14 -15 -14
-8 0 -15 -7 -15 -15 0 -8 -7 -15 -15 -15 -15 0 -10 29 8 41 13 9 -1 31 -14 23
-6 -3 -13 3 -16 14 -3 12 -15 22 -27 24 -15 2 -21 10 -20 26 0 12 -5 22 -13
22 -7 0 -13 -4 -13 -10 0 -5 -7 -10 -15 -10 -17 0 -21 35 -5 45 16 10 12 25
-6 25 -12 0 -15 6 -10 23 3 12 6 25 6 30 0 4 6 7 14 7 15 0 32 -37 23 -47 -3
-2 2 -13 11 -22 10 -10 22 -26 28 -36 7 -13 13 -15 18 -7 4 6 -2 20 -14 32
-24 24 -25 30 -5 30 8 0 15 6 15 14 0 8 7 16 15 20 8 3 15 12 15 21 0 21 17
19 30 -5z m210 -79 c0 -6 -5 -13 -10 -16 -12 -7 -4 -25 11 -25 5 0 9 7 9 15 0
8 5 15 11 15 7 0 9 -9 5 -22 -3 -13 -6 -29 -6 -36 0 -8 -7 -11 -19 -7 -12 4
-21 0 -25 -12 -3 -10 -9 -23 -12 -30 -3 -6 5 -13 18 -16 20 -3 19 -5 -9 -12
-33 -7 -41 -19 -23 -30 5 -3 7 -12 4 -19 -5 -14 52 -32 89 -28 9 1 17 -5 17
-13 0 -8 7 -15 15 -15 20 0 19 -19 0 -27 -9 -3 -22 2 -29 12 -9 13 -20 16 -38
12 -19 -5 -28 -2 -32 9 -3 8 -10 12 -16 9 -17 -10 -44 23 -31 39 8 10 5 16
-14 26 -25 13 -35 40 -15 40 6 0 10 -7 10 -15 0 -9 6 -12 15 -9 10 4 13 14 9
31 -4 14 -2 28 3 32 6 3 13 16 17 29 9 28 -9 29 -25 1 -8 -16 -14 -18 -22 -9
-9 9 -7 15 7 26 11 8 16 14 12 14 -4 0 -4 5 -1 10 5 8 11 8 20 0 15 -12 30 3
20 20 -3 6 3 10 14 10 12 0 21 -4 21 -9z m-3980 -76 c19 -23 2 -36 -39 -29
-25 4 -41 2 -46 -6 -11 -18 -8 -82 4 -90 9 -5 9 -14 1 -34 -17 -45 -13 -49 35
-44 34 4 45 2 45 -8 0 -8 -6 -14 -13 -14 -7 0 -23 -14 -36 -31 -31 -42 -91
-60 -91 -27 0 6 7 7 16 4 10 -4 24 2 35 15 19 22 17 39 -3 39 -13 0 -88 76
-88 90 0 5 7 13 16 18 10 6 14 14 9 22 -6 9 -9 9 -16 -1 -4 -7 -11 -11 -14 -7
-4 3 3 16 15 28 17 17 19 24 9 36 -9 11 -9 18 -1 26 16 16 46 -10 32 -27 -7
-9 -8 -15 -1 -19 5 -4 17 9 26 28 21 43 80 61 105 31z m-3 -88 c-4 -13 36 -57
52 -57 6 0 16 -11 21 -25 7 -18 14 -23 26 -18 13 5 16 2 11 -10 -3 -9 -2 -19
3 -22 11 -7 -18 -65 -33 -65 -8 0 -8 -3 1 -12 13 -13 42 6 42 28 0 14 34 37
42 28 11 -11 -27 -94 -44 -94 -9 0 -23 -2 -30 -5 -14 -6 -88 50 -88 66 0 14
38 11 43 -3 4 -10 7 -10 17 -1 11 10 10 14 -3 19 -24 9 -21 24 4 24 30 0 18
24 -14 28 -28 3 -36 17 -15 24 6 2 8 10 4 16 -5 9 -13 9 -27 2 -15 -9 -19 -7
-20 7 0 10 -3 35 -5 56 -3 26 -1 36 6 32 6 -4 9 -12 7 -18z m396 -19 c31 -15
34 -26 10 -45 -16 -12 -15 -13 12 -11 22 2 29 8 27 21 -4 22 14 23 22 1 8 -20
-12 -47 -30 -40 -6 2 -19 -1 -27 -7 -18 -14 -26 -51 -12 -54 6 -1 9 5 7 13 -4
19 26 30 41 15 8 -8 8 -14 0 -22 -7 -7 -8 -21 -3 -39 5 -16 6 -31 3 -34 -9 -9
-33 14 -33 31 0 8 -3 13 -7 11 -5 -2 -21 -10 -38 -17 -16 -7 -38 -18 -49 -23
-14 -7 -23 -6 -34 6 -20 20 -15 24 29 29 50 5 56 11 53 51 -2 20 1 36 7 36 6
0 9 5 7 11 -5 14 -23 12 -23 -3 0 -12 -33 -13 -45 -1 -5 5 25 30 43 36 6 2 7
9 3 16 -6 9 -11 9 -22 0 -8 -6 -14 -9 -14 -5 0 3 0 9 0 14 0 4 4 7 9 7 5 0 13
3 17 8 10 10 16 9 47 -5z m3178 -131 c-9 -9 -17 -6 -31 13 -20 26 -24 22 -20
-17 2 -24 -14 -31 -26 -11 -5 8 -11 6 -20 -7 -9 -12 -20 -16 -38 -11 -15 3
-26 2 -26 -3 0 -14 41 -21 60 -9 12 8 26 8 50 0 28 -10 35 -9 46 6 7 9 14 22
14 28 1 34 60 10 60 -24 0 -7 7 -12 16 -12 9 0 14 -7 12 -17 -4 -23 -28 -29
-28 -6 0 10 -11 23 -25 29 -23 11 -24 11 -21 -18 1 -16 8 -33 15 -37 8 -5 6
-13 -8 -25 -31 -29 -73 -10 -88 40 -13 45 -14 45 -17 -18 -1 -44 0 -48 22 -48
13 0 33 -5 45 -11 16 -9 22 -9 25 0 5 14 32 15 32 1 0 -19 -48 -34 -72 -23
-13 5 -36 8 -51 6 -22 -3 -30 1 -34 15 -2 11 -16 25 -29 32 -13 8 -24 17 -24
22 0 12 34 10 48 -4 9 -9 12 -9 12 3 0 14 -71 46 -91 41 -3 0 -4 10 -1 23 2
14 11 25 18 25 8 0 14 5 14 10 0 6 -13 10 -30 10 -21 0 -30 5 -30 16 0 13 7
15 34 11 26 -4 36 -1 40 10 5 12 16 14 49 10 23 -3 49 -2 56 3 21 12 58 -37
42 -53z m-3307 -72 c3 -8 12 -15 21 -15 11 0 14 -6 9 -24 -5 -22 -2 -25 30
-31 25 -5 36 -13 36 -25 0 -10 7 -21 16 -24 10 -4 13 -13 9 -26 -3 -11 -2 -20
3 -20 6 0 15 -13 21 -30 5 -16 17 -30 25 -30 20 0 32 -48 19 -69 -14 -23 -28
-11 -24 22 2 19 -2 27 -13 27 -16 0 -66 87 -66 116 0 12 -5 15 -22 9 -47 -15
-88 -13 -88 5 0 16 -35 20 -58 6 -17 -10 -54 3 -49 17 2 7 17 12 33 13 16 1
37 5 48 9 10 4 21 4 25 -1 6 -9 47 -34 56 -34 3 0 5 7 5 15 0 8 -7 15 -15 15
-9 0 -20 11 -25 24 -7 18 -14 22 -34 19 -30 -6 -33 3 -9 29 20 22 39 23 47 3z
m3046 7 c0 -4 -5 -13 -12 -20 -16 -16 -2 -28 16 -13 11 9 16 9 21 0 4 -6 3
-14 -3 -18 -15 -9 -27 -61 -13 -61 6 0 11 5 11 10 0 6 4 10 9 10 5 0 7 -9 4
-20 -7 -25 -23 -25 -67 0 -23 12 -38 16 -42 9 -3 -6 4 -13 15 -16 26 -7 22
-29 -5 -26 -10 1 -22 -3 -25 -9 -4 -6 -15 -4 -31 6 -14 9 -33 14 -42 10 -9 -3
-16 -1 -16 5 0 6 7 11 15 11 8 0 15 7 15 15 0 8 -4 15 -10 15 -5 0 -10 -4 -10
-10 0 -5 -7 -10 -15 -10 -20 0 -19 16 1 24 8 3 13 10 9 16 -4 6 -13 5 -25 -2
-25 -16 -37 -4 -17 17 20 20 69 21 61 1 -3 -8 3 -19 15 -26 12 -6 21 -20 21
-32 0 -12 3 -18 7 -14 4 4 8 17 8 29 0 12 5 22 12 22 6 0 15 3 19 8 13 12 34
8 34 -8 0 -8 7 -15 17 -15 15 0 15 1 0 18 -20 22 -22 53 -5 70 14 14 28 16 28
4z m-2863 -45 c10 -13 26 -26 36 -30 18 -7 24 -37 7 -37 -16 0 -11 -27 6 -34
10 -4 13 -13 9 -26 -7 -21 4 -27 21 -10 8 8 15 6 24 -5 14 -17 60 -21 60 -5 0
6 -7 10 -15 10 -17 0 -20 25 -5 35 18 11 11 27 -9 20 -23 -7 -35 8 -26 35 8
24 25 27 25 4 0 -11 5 -14 16 -10 9 3 27 -3 41 -13 13 -11 31 -17 39 -14 12 4
13 -2 8 -38 -4 -24 -8 -46 -10 -48 -8 -9 -24 13 -24 35 0 45 -25 26 -26 -20
-1 -38 1 -43 17 -39 22 6 26 -12 5 -20 -18 -7 -56 3 -56 14 0 6 -10 14 -22 18
-19 7 -28 3 -50 -20 -27 -29 -52 -23 -28 6 10 12 10 18 0 30 -12 14 -15 14
-30 0 -19 -17 -30 -11 -30 17 0 10 -4 18 -10 18 -5 0 -10 5 -10 11 0 7 7 8 18
4 69 -28 71 -8 2 26 -30 14 -50 31 -50 41 0 25 17 31 23 8 3 -12 14 -20 26
-20 26 0 26 5 1 30 -21 21 -27 50 -11 50 5 0 18 -10 28 -23z m2957 -74 c4 -5
22 -8 39 -8 25 0 32 -4 32 -20 0 -14 -6 -19 -20 -18 -18 2 -21 -4 -21 -34 0
-25 -7 -41 -22 -53 -12 -10 -22 -23 -22 -29 0 -7 -10 -9 -25 -5 -26 6 -26 7
-28 -51 -1 -14 7 -31 18 -38 20 -15 13 -37 -11 -37 -8 0 -12 5 -9 10 3 6 -1
13 -9 16 -15 6 -17 56 -3 71 13 12 7 23 -11 23 -10 0 -23 5 -29 11 -8 8 -14 5
-23 -10 -9 -17 -7 -28 7 -54 10 -17 26 -38 36 -45 20 -15 22 -43 5 -60 -17
-17 -28 -15 -28 7 0 11 -4 22 -9 25 -5 3 -12 21 -15 40 -4 19 -13 39 -21 46
-17 14 -20 50 -5 50 5 0 7 13 4 30 -5 23 -3 30 10 30 10 0 15 -7 13 -22 -2
-19 3 -22 28 -20 50 3 88 14 108 33 18 16 18 17 0 28 -17 10 -17 12 0 22 9 5
15 15 12 20 -4 5 -11 7 -16 3 -5 -3 -17 0 -25 7 -14 12 -14 14 2 26 20 15 28
16 38 6z m373 -33 c3 -11 9 -20 14 -20 15 0 10 -32 -8 -52 -19 -21 -46 -23
-62 -4 -9 11 -17 11 -36 2 -35 -16 -31 -24 13 -31 55 -10 59 -12 78 -40 23
-35 12 -42 -24 -16 -36 25 -45 26 -78 5 -13 -9 -27 -14 -31 -10 -3 3 -1 6 5 6
7 0 12 7 12 16 0 11 -6 15 -19 11 -17 -4 -19 -1 -14 32 7 43 22 66 36 52 6 -6
20 -5 39 1 23 8 33 7 47 -6 23 -21 36 -8 15 15 -9 10 -23 15 -36 11 -17 -4
-20 -2 -15 12 4 10 7 22 7 27 0 5 12 9 26 9 17 0 28 -6 31 -20z m-3004 -190
c11 -27 13 -36 15 -63 1 -10 9 -20 18 -24 10 -3 30 -19 45 -36 28 -29 49 -29
49 -1 0 8 7 14 16 14 12 0 15 -7 12 -25 -3 -14 0 -29 7 -33 7 -4 15 -17 19
-29 6 -20 4 -21 -36 -16 -52 7 -59 12 -30 20 22 5 27 14 15 26 -3 4 -12 2 -19
-4 -11 -9 -15 -7 -20 5 -4 11 -13 14 -25 11 -14 -5 -20 0 -25 19 -3 14 -12 26
-20 26 -8 0 -14 5 -14 10 0 6 -10 10 -22 10 -17 0 -19 3 -10 12 18 18 14 30
-8 23 -13 -4 -20 -2 -21 7 0 7 -2 31 -4 52 -2 21 -2 43 1 48 8 12 44 -21 57
-52z m-1119 -112 c3 -15 0 -27 -9 -34 -8 -6 -15 -16 -15 -21 0 -14 44 -25 48
-13 5 14 36 12 50 -2 19 -19 14 -31 -9 -25 -15 4 -23 0 -26 -14 -7 -26 -16
-24 -41 11 -32 42 -40 39 -52 -20 -1 -2 3 -6 9 -8 6 -2 11 4 11 14 0 17 2 16
22 -4 21 -20 21 -23 6 -39 -14 -13 -20 -14 -32 -4 -8 7 -17 8 -20 3 -3 -6 5
-17 19 -26 14 -9 25 -23 25 -31 0 -18 -27 -20 -32 -3 -3 8 -14 7 -38 -5 -18
-9 -38 -17 -44 -17 -6 0 -17 -9 -24 -20 -15 -25 -28 -26 -36 -2 -3 9 -9 23
-12 30 -3 7 1 12 10 12 9 0 16 -4 16 -10 0 -21 24 -9 62 31 28 29 37 44 29 52
-7 7 -14 7 -25 -2 -16 -13 -32 1 -21 19 11 17 -5 32 -21 19 -11 -9 -14 -8 -14
3 0 8 5 19 12 26 8 8 8 15 -2 27 -10 12 -10 15 4 15 24 0 31 -4 28 -14 -5 -14
21 -26 41 -20 34 11 55 40 50 68 -7 33 22 37 31 4z m3174 -69 c-3 -17 -1 -32
4 -35 15 -10 8 -22 -22 -34 -16 -7 -30 -17 -30 -22 0 -10 39 -1 55 13 16 16
26 10 23 -13 -2 -17 -9 -22 -26 -20 -14 1 -22 -3 -20 -9 2 -7 16 -13 31 -15
68 -7 80 -22 49 -61 -20 -26 -82 -36 -90 -14 -3 10 1 12 17 8 11 -3 21 -1 21
4 0 5 9 9 20 9 11 0 20 5 20 11 0 7 -9 9 -22 5 -13 -4 -41 -10 -63 -13 -37 -5
-42 -3 -53 21 -16 36 -15 56 3 56 8 0 15 -6 15 -13 0 -18 27 -53 35 -46 10 10
-35 89 -51 89 -8 0 -14 7 -14 15 0 10 10 15 29 15 18 0 31 6 35 16 8 21 -1 31
-15 17 -6 -6 -19 -8 -30 -6 -22 6 -26 33 -4 33 8 0 15 4 15 8 0 4 16 8 36 9
34 1 36 0 32 -28z m702 -24 c0 -8 -5 -15 -11 -15 -5 0 -8 -4 -4 -9 3 -6 -4
-26 -15 -46 -26 -46 -26 -48 10 -40 23 5 30 3 30 -9 0 -9 8 -16 19 -16 16 0
18 -7 16 -51 -2 -35 -8 -55 -19 -61 -22 -12 -20 -25 4 -31 11 -3 20 -10 20
-16 0 -16 -26 -13 -40 4 -7 8 -19 15 -26 15 -8 0 -14 -7 -14 -15 0 -8 -7 -15
-15 -15 -18 0 -18 5 -5 30 12 22 -4 38 -17 17 -15 -25 -53 -40 -69 -26 -22 18
-18 42 5 30 14 -8 23 -5 40 10 12 12 33 19 49 18 46 -4 72 1 72 11 0 7 -13 9
-32 5 -27 -5 -39 0 -68 24 -36 31 -37 51 -2 32 35 -19 47 -12 24 12 -12 13
-22 28 -22 34 0 6 -12 18 -26 28 -25 16 -25 18 -9 33 13 13 19 14 22 5 7 -18
33 -16 33 2 0 8 -7 15 -15 15 -8 0 -15 5 -15 10 0 14 13 13 28 -2 10 -10 14
-8 18 10 7 25 34 30 34 7z m-3711 -13 c17 -32 24 -112 10 -112 -6 0 -17 -8
-24 -17 -14 -18 -81 -21 -99 -3 -12 12 -36 13 -36 1 0 -5 9 -11 21 -14 31 -8
13 -27 -26 -27 -39 0 -57 19 -27 27 12 3 22 15 24 26 2 17 11 22 41 25 32 2
40 -1 44 -18 7 -26 23 -16 23 15 0 13 10 31 22 39 12 9 19 18 16 22 -11 10
-48 -7 -48 -22 0 -8 -9 -13 -22 -12 -13 1 -38 -2 -55 -6 -18 -4 -33 -4 -33 1
0 15 39 33 56 26 14 -5 16 -2 11 16 -4 18 -2 21 13 16 11 -3 22 0 27 8 7 13
27 24 45 26 4 1 12 -7 17 -17z m651 -56 c0 -28 27 -40 83 -36 37 2 51 -13 22
-24 -19 -7 -20 -26 -1 -26 8 0 18 -9 21 -21 4 -11 18 -24 32 -30 33 -12 32
-12 43 16 10 27 40 34 40 10 0 -8 -7 -15 -15 -15 -8 0 -15 -5 -15 -10 0 -6 12
-9 28 -8 19 2 27 -2 27 -12 0 -11 -13 -16 -47 -18 -27 -2 -48 1 -48 6 0 5 -14
12 -31 16 -22 4 -30 10 -25 21 3 9 0 15 -9 15 -9 0 -14 -8 -12 -21 1 -12 -4
-24 -10 -26 -8 -3 -13 4 -13 16 0 13 -10 26 -25 33 -30 14 -33 28 -5 28 11 0
20 5 20 10 0 6 -8 10 -18 10 -10 0 -23 5 -29 11 -8 8 -13 3 -18 -20 -7 -34
-16 -38 -35 -16 -10 12 -16 13 -26 4 -11 -9 -14 -8 -14 4 0 20 24 39 43 31 8
-3 18 0 23 7 4 7 2 15 -4 17 -13 4 -16 34 -5 45 13 14 23 6 23 -17z m350 -47
c0 -7 9 -9 21 -6 18 5 20 2 15 -19 -5 -19 -3 -24 13 -24 10 0 21 -9 24 -20 3
-13 10 -18 21 -14 29 11 18 -26 -11 -38 l-28 -12 38 -4 c45 -4 48 -16 6 -28
-41 -12 -37 -29 6 -25 19 1 35 -2 35 -7 0 -20 42 -21 63 -1 25 23 37 24 37 5
0 -8 -14 -24 -30 -36 -31 -22 -48 -19 -71 14 -4 5 -12 5 -19 1 -8 -5 -5 -14
11 -31 12 -13 19 -27 14 -31 -4 -5 -10 -2 -12 5 -6 17 -31 15 -35 -3 -2 -13
-9 -11 -35 7 -51 36 -41 48 20 23 12 -5 17 -2 17 9 0 10 -12 19 -31 23 -35 7
-47 26 -30 47 9 11 9 19 -1 36 -11 17 -11 22 2 30 8 5 12 12 8 15 -3 4 -16 -3
-27 -14 -22 -22 -51 -28 -51 -11 0 5 7 13 16 18 13 7 14 13 5 30 -14 26 -14
72 -1 72 6 0 10 -5 10 -11z m2340 -49 c0 -5 9 -10 20 -10 12 0 30 -9 41 -19
18 -16 19 -22 7 -40 -17 -28 -32 -27 -24 3 5 19 1 25 -16 29 -12 3 -25 4 -29
1 -12 -7 26 -65 52 -78 12 -6 24 -17 27 -23 6 -19 -29 -29 -39 -12 -6 13 -24
15 -71 10 -5 -1 -8 -12 -8 -26 0 -30 -20 -33 -27 -5 -6 23 -23 27 -23 5 0 -8
-4 -15 -8 -15 -10 0 -62 53 -62 62 0 8 118 3 127 -5 10 -11 24 4 16 16 -11 17
-11 61 0 68 18 12 -4 29 -29 23 -14 -4 -24 -2 -24 4 0 9 20 17 58 21 6 0 12
-3 12 -9z m-1212 -77 c13 -3 22 -13 22 -24 0 -15 -6 -17 -35 -12 -36 6 -49 -9
-19 -21 8 -3 13 -10 9 -15 -3 -6 -12 -8 -20 -4 -11 4 -15 -2 -15 -21 0 -14 -4
-26 -10 -26 -5 0 -10 5 -10 10 0 6 -5 10 -11 10 -6 0 -9 -9 -6 -20 3 -11 2
-22 -3 -25 -4 -2 -6 -18 -4 -33 2 -18 -4 -37 -15 -49 -13 -13 -17 -29 -14 -46
6 -32 -21 -39 -30 -8 -4 19 -61 53 -71 43 -3 -3 -3 -16 0 -28 5 -18 2 -24 -9
-24 -9 0 -19 5 -22 10 -10 16 -24 2 -18 -18 2 -10 -3 -24 -11 -31 -9 -8 -16
-19 -16 -25 0 -6 -14 -11 -30 -12 -17 -1 -30 1 -30 3 0 3 14 18 30 35 17 16
30 34 30 39 0 17 -18 9 -34 -16 -16 -25 -46 -34 -46 -15 0 6 5 10 10 10 6 0 8
10 4 24 -5 22 -3 23 40 21 30 -1 47 3 50 12 3 7 12 13 21 13 23 0 18 15 -10
28 -14 6 -25 18 -25 27 0 8 -5 15 -11 15 -5 0 -8 4 -5 9 11 17 52 -1 64 -28 8
-19 25 -31 49 -39 33 -10 40 -9 60 10 29 27 14 51 -15 25 -11 -10 -26 -14 -40
-10 -12 3 -22 6 -22 8 0 14 24 65 31 65 5 0 9 7 9 15 0 23 -13 18 -35 -15 -13
-19 -22 -25 -27 -17 -4 6 -17 12 -29 12 -30 0 -37 25 -7 26 13 1 29 1 36 0 7
-1 12 10 12 29 0 39 13 38 55 -4 l34 -34 25 33 c15 19 23 40 20 49 -4 10 0 18
10 22 9 3 16 13 16 21 0 11 6 13 23 8 12 -3 32 -9 45 -12z m1685 -13 c9 -11
17 -25 17 -30 0 -6 7 -13 17 -17 14 -5 12 -8 -7 -15 -18 -7 -21 -11 -12 -20
15 -15 15 -28 1 -28 -15 0 -48 -43 -42 -53 3 -5 14 1 24 12 20 21 39 28 39 13
0 -4 -5 -13 -12 -20 -8 -8 -8 -15 1 -26 10 -11 9 -19 -1 -36 -11 -17 -11 -22
2 -30 13 -8 13 -10 -2 -10 -9 0 -21 -8 -27 -17 -5 -10 -13 -15 -16 -11 -9 9 4
68 16 68 5 0 9 7 9 15 0 25 -18 17 -35 -15 -17 -32 -35 -40 -35 -15 0 8 -6 15
-13 15 -25 0 -77 -31 -77 -46 0 -16 -16 -19 -25 -4 -4 6 -1 18 7 27 10 13 10
17 1 20 -27 9 -11 21 21 16 19 -3 36 -1 40 6 10 15 22 14 41 -5 12 -12 19 -14
27 -6 8 8 6 13 -8 19 -33 12 -45 31 -53 83 -7 45 -6 50 10 50 12 0 19 -7 19
-18 0 -10 5 -23 12 -30 9 -9 9 -15 0 -24 -17 -17 -15 -28 4 -28 10 0 14 5 10
15 -3 9 3 20 14 27 26 16 25 28 0 28 -11 0 -20 5 -20 10 0 6 9 10 20 10 11 0
20 7 20 15 0 8 -4 15 -9 15 -10 0 -22 40 -15 52 8 13 18 10 37 -12z m-2516
-41 c-4 -15 0 -23 14 -26 21 -6 25 -18 9 -28 -15 -9 -12 -25 5 -25 8 0 15 -7
15 -15 0 -8 5 -15 10 -15 6 0 10 4 10 9 0 6 -4 13 -10 16 -13 8 -13 45 0 45 6
0 14 -8 17 -17 4 -10 16 -25 26 -34 19 -15 19 -16 -7 -32 -15 -10 -34 -16 -44
-15 -13 2 -16 -3 -14 -19 3 -18 -2 -23 -17 -23 -12 0 -21 -4 -21 -9 0 -5 -13
-12 -30 -16 -16 -4 -30 -13 -30 -20 0 -26 -42 -87 -53 -76 -6 6 -4 15 7 26 9
9 16 31 16 49 0 29 4 34 39 46 28 9 43 22 56 49 21 44 20 46 -7 46 -12 0 -23
6 -25 13 -3 7 1 10 10 6 8 -3 18 -1 22 5 3 6 0 14 -8 17 -20 7 -20 64 0 64 11
0 14 -6 10 -21z m1343 -10 c0 -16 -5 -19 -19 -14 -27 8 -36 -12 -11 -25 27
-14 50 2 50 36 0 14 6 24 14 24 24 0 29 -19 11 -47 -13 -20 -14 -27 -5 -33 19
-11 4 -40 -20 -40 -11 0 -20 3 -20 8 0 4 -11 12 -24 18 -18 8 -27 7 -43 -5
-11 -9 -18 -21 -16 -27 2 -6 -10 -18 -28 -26 -18 -9 -26 -18 -20 -22 6 -4 19
-2 30 4 26 13 54 13 49 -1 -7 -21 -95 -49 -120 -39 -16 6 -18 9 -7 9 22 1 35
51 17 62 -17 11 -26 11 -33 -1 -3 -5 -1 -10 4 -10 6 0 11 -9 11 -20 0 -11 -6
-20 -14 -20 -25 0 -28 -20 -5 -28 18 -7 19 -10 7 -15 -33 -12 -74 12 -48 28
15 9 12 25 -5 25 -8 0 -15 5 -15 10 0 14 28 12 33 -2 2 -7 8 -10 12 -6 4 4 -4
20 -19 35 -20 20 -26 33 -21 50 5 22 38 63 50 63 13 0 3 -40 -16 -64 -26 -33
-6 -34 25 -1 30 32 33 31 41 -5 7 -34 16 -37 36 -14 13 15 16 31 20 87 2 30 9
33 27 15 9 -9 15 -10 20 -2 8 13 34 23 45 17 4 -2 7 -13 7 -24z m-1112 -87 c2
-13 -2 -22 -9 -22 -11 0 -11 -2 0 -12 10 -11 19 -5 46 26 29 35 35 38 48 25
17 -18 28 -49 31 -92 2 -18 6 -42 10 -54 5 -17 3 -23 -8 -23 -21 0 -30 18 -17
34 8 10 6 18 -10 32 -13 12 -19 28 -17 48 2 18 -2 31 -11 34 -11 4 -13 -4 -8
-37 4 -31 2 -41 -9 -41 -8 0 -17 6 -20 13 -5 15 -64 11 -64 -5 0 -5 10 -8 22
-6 19 2 22 -2 24 -29 2 -37 -31 -55 -39 -22 -3 11 -14 19 -26 19 -12 0 -21 6
-21 15 0 8 5 15 11 15 14 0 1 42 -19 57 -24 20 -7 26 21 8 25 -16 45 -7 32 15
-8 14 4 32 18 27 7 -2 13 -13 15 -25z m1393 -77 c20 -5 28 -14 31 -37 3 -19 0
-32 -9 -35 -7 -3 -13 -9 -13 -14 0 -14 28 -11 33 4 4 9 8 8 16 -3 6 -8 18 -15
28 -15 28 0 21 -28 -9 -43 -16 -7 -28 -17 -28 -23 0 -5 -7 -9 -16 -9 -25 0
-10 -24 22 -35 40 -13 40 -12 13 -34 -28 -24 -39 -26 -39 -7 0 7 -7 20 -16 27
-14 11 -20 10 -40 -14 -30 -35 -61 -38 -43 -4 7 12 19 27 27 33 8 6 12 16 9
22 -5 6 0 8 13 5 13 -4 20 0 20 10 0 8 9 17 20 20 24 6 27 27 4 27 -18 0 -44
23 -44 39 0 6 5 11 10 11 6 0 10 13 10 29 0 25 -5 30 -35 35 -20 4 -33 11 -29
17 3 5 13 8 22 5 10 -3 29 -8 43 -11z m711 -136 l33 -31 -33 6 c-30 5 -32 4
-26 -19 4 -15 2 -25 -5 -25 -6 0 -11 -5 -11 -11 0 -7 9 -9 23 -5 22 5 23 3 19
-26 l-5 -32 -33 38 -32 38 -20 -20 c-19 -19 -20 -23 -6 -68 8 -26 12 -49 10
-52 -3 -2 -15 3 -28 12 -28 20 -38 20 -38 2 0 -8 14 -17 30 -21 25 -5 30 -12
30 -35 0 -20 -6 -29 -21 -33 -32 -9 -14 -24 23 -20 32 4 32 4 13 -12 -30 -24
-68 -16 -72 17 -2 14 1 29 7 33 20 12 10 25 -15 19 -24 -6 -25 -4 -19 20 6 25
5 27 -20 20 -22 -5 -26 -3 -26 16 0 17 -4 20 -20 16 -11 -3 -29 -8 -39 -11
-22 -7 -41 19 -41 54 0 31 17 25 29 -9 10 -30 11 -30 34 -15 26 17 61 10 53
-10 -3 -8 2 -16 10 -19 9 -4 14 1 14 15 0 17 4 20 24 15 14 -3 27 -2 31 3 7
12 -7 21 -39 23 -30 3 -29 22 1 26 12 2 29 12 39 23 9 10 28 19 41 19 16 0 27
7 30 20 3 11 9 20 14 20 5 0 7 11 3 25 -8 32 -2 32 38 -6z m-377 -289 c3 -5
12 -7 20 -3 8 3 15 0 15 -7 0 -6 -10 -10 -22 -8 -11 2 -23 -3 -25 -9 -3 -7 2
-13 10 -13 7 0 22 -9 33 -21 17 -19 17 -21 2 -30 -13 -7 -14 -13 -5 -34 7 -14
18 -25 25 -25 14 0 16 16 2 25 -15 9 -12 25 5 25 8 0 15 -4 15 -10 0 -5 11
-10 24 -10 27 0 42 -15 26 -25 -15 -9 -12 -25 4 -25 8 0 16 7 20 15 3 8 14 15
25 15 12 0 24 11 33 30 15 35 24 37 57 9 27 -22 20 -39 -9 -21 -29 18 -39 15
-36 -13 4 -33 12 -40 31 -25 12 10 16 9 21 -4 10 -26 34 -19 34 10 0 19 5 24
18 22 11 -2 18 1 18 7 -1 5 -7 8 -14 7 -10 -2 -12 3 -7 18 6 18 3 21 -21 18
-36 -4 -43 18 -8 25 32 6 86 -29 82 -53 -1 -8 2 -16 7 -17 6 -1 9 7 8 17 -2
14 4 18 32 18 19 0 35 -3 35 -6 0 -4 -14 -22 -31 -40 -21 -22 -38 -32 -50 -29
-10 3 -29 -3 -43 -14 -13 -10 -27 -15 -31 -11 -4 4 -5 -14 -3 -40 6 -56 -4
-61 -26 -16 -11 21 -13 35 -6 42 19 19 10 23 -47 18 -120 -9 -118 -9 -118 15
0 28 -19 31 -23 4 -3 -17 -7 -18 -35 -10 -18 5 -32 9 -33 9 -4 0 -16 -47 -17
-64 -3 -31 -27 -32 -27 -1 0 22 -3 25 -20 20 -16 -5 -20 -2 -20 15 0 17 -4 20
-20 15 -14 -4 -20 -2 -20 8 0 19 22 27 49 20 23 -6 28 6 9 25 -16 16 -4 25 21
17 22 -7 28 -29 11 -40 -16 -10 -12 -35 5 -28 9 3 13 8 11 11 -3 3 -1 11 5 18
7 9 6 20 -6 38 -10 14 -14 33 -11 42 3 8 0 25 -8 36 -8 11 -12 27 -9 34 6 16
29 19 38 4z m-1631 -227 c46 -59 54 -93 20 -93 -8 0 -17 -6 -20 -14 -7 -17
-53 -15 -64 4 -4 7 -13 10 -19 6 -18 -12 16 -55 39 -49 11 3 20 1 20 -5 0 -5
-9 -12 -20 -15 l-21 -5 21 -37 c24 -43 20 -54 -14 -35 -26 14 -61 7 -51 -10 4
-6 14 -9 22 -8 9 2 18 -3 21 -10 3 -10 -5 -13 -29 -10 -32 3 -34 5 -36 46 -1
29 3 42 12 42 7 0 15 -6 18 -12 2 -7 8 -10 12 -6 4 4 2 14 -4 22 -7 8 -10 20
-6 25 3 6 -2 22 -11 36 -16 25 -16 27 6 50 28 30 50 32 50 6 0 -14 7 -18 30
-17 24 1 30 5 30 24 0 15 -7 26 -19 29 -11 3 -17 11 -15 18 3 7 -2 15 -11 19
-9 3 -13 10 -10 16 10 17 26 11 49 -17z m-1187 -67 c22 6 24 4 18 -15 -4 -15
-1 -23 10 -28 16 -5 16 -7 1 -15 -21 -12 -20 -21 4 -36 18 -11 21 -9 30 13 12
31 54 34 70 5 6 -11 15 -18 20 -15 5 3 13 -3 19 -12 8 -14 12 -16 22 -5 20 19
29 14 29 -18 0 -29 -13 -40 -24 -21 -4 5 -23 1 -43 -9 -21 -10 -41 -16 -45
-13 -14 8 -8 33 7 33 21 0 19 17 -4 30 -28 14 -31 13 -31 -15 0 -14 -9 -30
-19 -37 -15 -9 -17 -16 -10 -30 8 -15 6 -18 -11 -18 -13 0 -24 11 -34 35 -14
32 -18 35 -43 30 -24 -6 -26 -5 -12 7 9 7 20 24 24 38 4 14 12 28 18 31 18 12
-28 45 -65 46 -28 1 -37 -3 -41 -19 -3 -11 -10 -17 -16 -13 -14 8 -14 45 -1
45 6 0 10 7 10 15 0 18 12 19 28 3 8 -8 17 -7 34 4 21 15 23 14 26 -3 3 -15 9
-18 29 -13z m2436 -3 c-7 -2 -13 -13 -13 -23 0 -10 -5 -22 -10 -25 -6 -4 -8
-10 -5 -15 3 -5 -2 -21 -11 -35 -13 -19 -14 -28 -5 -39 10 -11 9 -16 -4 -23
-13 -8 -14 -14 -5 -38 7 -19 7 -32 1 -38 -14 -14 -23 -3 -25 25 -1 14 -11 28
-28 36 -23 11 -28 20 -28 48 0 20 -5 34 -12 35 -7 0 -28 2 -45 3 -26 3 -33 0
-33 -13 0 -10 3 -20 6 -24 3 -3 7 -26 9 -51 2 -32 -1 -46 -10 -46 -22 0 -35
25 -40 76 -3 37 0 55 14 73 l19 25 61 -19 c51 -15 62 -23 67 -44 10 -44 13
-51 25 -51 8 0 10 13 5 39 -4 26 -2 41 5 43 7 2 13 19 14 37 3 34 18 51 45 50
10 0 11 -2 3 -6z m911 -45 c-11 -62 -11 -92 0 -100 10 -7 -16 -38 -33 -38 -6
0 -11 -9 -11 -20 0 -11 -4 -20 -10 -20 -5 0 -10 -4 -10 -10 0 -17 -41 -52 -55
-46 -19 7 -27 -5 -14 -21 15 -17 -6 -43 -35 -43 -19 1 -20 1 -3 11 12 7 16 17
12 30 -8 24 11 49 36 49 24 0 25 17 2 22 -12 2 -18 14 -19 41 -4 47 11 48 31
0 11 -25 19 -33 26 -26 7 7 4 20 -8 41 -20 35 -18 39 17 44 16 2 25 -2 25 -11
0 -8 6 -16 13 -18 15 -6 15 5 1 44 -8 25 -6 38 11 72 12 22 24 41 27 41 3 0 1
-19 -3 -42z m-859 -91 c8 -24 6 -30 -8 -38 -10 -6 -15 -14 -12 -20 9 -14 25
-11 25 5 0 7 7 19 15 26 13 11 13 15 3 21 -9 6 -10 11 -2 19 8 8 14 7 23 -4
18 -21 3 -87 -20 -93 -11 -3 -19 -12 -19 -19 0 -8 -5 -14 -11 -14 -6 0 -9 -9
-6 -20 3 -13 -2 -25 -16 -35 -12 -9 -22 -21 -22 -28 0 -7 -12 -11 -28 -10 -15
1 -27 -2 -27 -8 0 -5 5 -9 10 -9 6 0 10 -9 10 -20 0 -25 -12 -25 -34 -1 -10
11 -24 17 -32 14 -8 -3 -14 1 -14 10 0 8 9 17 20 20 13 3 20 14 20 29 1 20 2
21 11 6 12 -22 29 -23 29 -3 0 10 10 15 31 15 20 0 29 4 26 13 -2 7 -17 11
-36 9 -21 -1 -31 2 -31 12 0 9 12 14 36 14 41 0 67 18 41 28 -12 4 -17 18 -17
50 0 38 -3 44 -21 44 -12 0 -17 4 -14 11 4 5 19 9 33 7 19 -2 30 -11 37 -31z
m-2015 2 c15 -26 7 -34 -19 -20 -15 9 -26 8 -41 -1 -11 -7 -20 -16 -20 -20 0
-5 -7 -8 -15 -8 -18 0 -20 -16 -4 -26 7 -4 16 1 21 10 11 20 28 21 28 1 0 -8
-7 -15 -15 -15 -9 0 -15 -9 -15 -21 0 -12 -8 -28 -17 -35 -16 -11 -16 -13 10
-25 25 -11 38 -39 19 -39 -24 0 -62 27 -60 42 2 9 0 17 -4 18 -36 2 -48 -2
-48 -15 0 -8 -7 -15 -15 -15 -12 0 -14 8 -9 40 6 38 5 40 -20 40 -19 0 -26 5
-26 20 0 23 10 26 28 8 6 -6 15 -8 19 -4 5 5 -2 15 -14 23 -23 16 -31 43 -13
43 6 0 19 -9 31 -21 13 -13 27 -18 40 -14 11 4 19 2 19 -4 0 -27 40 -3 53 33
4 11 13 16 22 12 8 -3 15 -1 15 4 0 19 39 10 50 -11z m560 -225 c0 -8 4 -13
10 -9 5 3 19 0 32 -7 13 -7 24 -14 26 -15 7 -3 -21 -48 -37 -60 -14 -11 -14
-14 -1 -23 22 -14 34 -7 44 28 5 18 14 32 20 32 6 0 31 -18 56 -40 39 -34 42
-39 23 -40 -12 0 -26 6 -30 14 -4 8 -17 16 -28 18 -16 2 -20 -3 -20 -22 0 -35
5 -43 21 -29 11 9 18 8 30 -2 15 -12 14 -15 -5 -30 -25 -20 -27 -29 -6 -29 8
0 15 -7 15 -16 0 -17 -1 -17 -47 11 -25 15 -33 27 -33 48 0 19 -4 27 -12 24
-7 -2 -12 -15 -10 -29 2 -15 -2 -29 -8 -33 -8 -5 -11 4 -8 31 2 23 -2 39 -10
42 -6 2 -12 -1 -12 -7 0 -6 -7 -11 -15 -11 -17 0 -20 16 -5 25 19 12 11 44
-12 47 -28 4 -40 58 -14 58 18 0 21 15 7 25 -6 3 -13 -1 -18 -8 -14 -23 -71
-58 -78 -47 -3 5 0 10 7 10 7 0 22 12 33 27 36 48 45 54 66 43 10 -6 19 -18
19 -26z m1531 -78 c0 -5 -10 -14 -23 -20 -14 -7 -22 -19 -20 -30 2 -10 -4 -26
-13 -36 -15 -17 -15 -19 2 -28 15 -9 16 -13 5 -24 -11 -11 -15 -10 -23 5 -6 9
-14 15 -20 12 -5 -3 1 -19 13 -35 l21 -30 -27 -25 c-26 -24 -29 -25 -40 -9
-11 14 -16 14 -33 4 -24 -15 -73 2 -92 32 -19 30 -3 39 34 18 25 -14 36 -16
41 -8 4 7 2 14 -4 16 -7 2 -12 10 -12 18 0 8 -7 14 -15 14 -8 0 -15 5 -15 10
0 19 35 9 55 -15 35 -45 58 -64 67 -59 5 4 -1 17 -13 30 l-22 24 21 23 c15 16
20 31 16 53 -3 23 0 33 11 37 8 4 15 13 15 21 0 11 10 14 35 13 19 -2 36 -6
36 -11z"/>
<path d="M3889 3796 c-13 -14 4 -56 22 -56 12 0 23 -10 29 -25 12 -31 22 -33
18 -3 -5 34 18 32 36 -3 22 -45 21 -91 -1 -87 -10 1 -19 -2 -19 -7 -1 -6 3 -9
8 -7 6 1 16 -3 24 -9 10 -8 14 -8 14 0 0 6 9 11 19 11 12 0 29 -16 45 -44 20
-35 30 -43 46 -39 11 3 20 12 20 20 0 10 -6 12 -21 8 -16 -5 -20 -3 -17 6 6
18 83 19 83 2 0 -6 -15 -22 -34 -35 -32 -21 -43 -43 -22 -43 5 0 13 -3 17 -7
15 -16 24 -7 18 17 -6 25 -5 26 30 22 55 -6 55 -8 16 -87 -10 -20 8 -45 38
-54 20 -7 27 -22 23 -53 -1 -7 4 -13 12 -13 23 0 8 47 -26 80 l-31 30 18 34
c23 43 19 82 -9 79 -14 -2 -25 7 -36 30 -13 27 -22 32 -52 34 -21 0 -40 -3
-43 -8 -8 -14 -24 0 -24 22 0 16 5 18 24 13 14 -3 31 -2 38 2 9 6 6 10 -12 14
-15 4 -26 14 -28 27 -2 12 -10 27 -18 33 -20 17 -18 30 5 30 20 0 44 -22 39
-36 -2 -5 2 -10 7 -11 6 -1 9 5 7 14 -3 12 3 15 25 10 22 -4 30 -1 38 16 12
25 8 57 -6 57 -5 0 -9 -11 -9 -25 0 -14 -3 -25 -8 -25 -10 0 -42 38 -42 51 0
5 -5 7 -10 4 -8 -5 -7 -11 1 -21 16 -20 2 -31 -21 -16 -13 8 -21 8 -26 1 -3
-6 -19 -8 -35 -5 -16 3 -29 1 -29 -4 0 -6 6 -10 14 -10 14 0 32 -18 24 -25 -1
-2 -15 -6 -30 -10 -23 -6 -27 -3 -33 23 -7 32 -25 45 -50 36 -8 -4 -22 -1 -30
6 -8 7 -15 9 -16 4 -1 -5 -4 1 -8 14 -3 13 -9 21 -12 18z"/>
</g>
</svg>
