<?xml version="1.0" standalone="no"?>
<!DOCTYPE svg PUBLIC "-//W3C//DTD SVG 20010904//EN"
 "http://www.w3.org/TR/2001/REC-SVG-20010904/DTD/svg10.dtd">
<svg version="1.0" xmlns="http://www.w3.org/2000/svg"
 width="654.000000pt" height="644.000000pt" viewBox="0 0 654.000000 644.000000"
 preserveAspectRatio="xMidYMid meet">
<metadata>
Created by potrace 1.16, written by Peter Selinger 2001-2019
</metadata>
<g transform="translate(0.000000,644.000000) scale(0.100000,-0.100000)"
fill="#000000" stroke="none">
<path d="M1677 5383 c-11 -11 -8 -23 6 -23 7 0 18 -14 24 -30 8 -20 16 -28 26
-24 8 3 18 0 22 -6 5 -8 10 -8 20 0 8 7 22 10 32 7 16 -4 15 -6 -5 -12 -27 -9
-24 -31 4 -28 13 1 19 -5 20 -20 1 -12 5 -32 9 -44 6 -19 2 -23 -41 -36 -46
-13 -49 -13 -52 4 -2 11 -12 19 -23 19 -20 0 -26 15 -9 25 13 8 2 27 -13 22
-7 -2 -12 -10 -12 -17 0 -19 -36 -39 -42 -22 -6 16 -33 16 -33 -1 0 -18 49
-44 58 -32 11 16 34 17 43 3 13 -19 11 -28 -6 -28 -8 0 -15 -6 -15 -12 0 -16
-44 -68 -57 -68 -10 0 -23 -31 -23 -56 0 -7 14 -11 33 -10 21 1 32 7 32 16 0
8 -8 14 -17 14 -10 -1 -14 4 -11 12 3 8 18 14 34 14 25 0 29 4 29 30 0 32 21
48 67 53 48 4 93 38 93 69 0 15 -5 28 -11 28 -6 0 -8 7 -5 15 3 9 -6 34 -20
55 -27 40 -38 48 -48 31 -4 -5 -12 -8 -19 -7 -19 3 -67 42 -67 55 0 12 -13 15
-23 4z"/>
<path d="M1488 5226 c-10 -7 -18 -16 -18 -20 0 -11 -34 -42 -53 -49 -13 -5
-16 -13 -12 -26 5 -16 0 -20 -27 -23 -20 -2 -34 -9 -34 -18 -1 -8 -2 -20 -3
-26 0 -5 -19 -18 -42 -28 -27 -12 -39 -23 -37 -34 2 -10 11 -16 21 -14 9 2 17
-2 17 -7 0 -18 -22 -23 -46 -10 -13 7 -27 10 -30 6 -11 -11 5 -39 26 -44 11
-3 20 -14 20 -24 0 -10 4 -20 9 -23 11 -7 33 18 24 27 -3 4 0 15 9 24 8 10 15
29 16 42 1 21 41 71 57 71 15 0 2 -28 -15 -33 -28 -7 -25 -23 9 -43 23 -14 28
-23 28 -56 0 -21 3 -41 5 -44 11 -10 98 19 98 32 0 8 -5 14 -11 14 -6 0 -9 6
-6 13 2 6 -6 26 -20 44 -20 27 -22 35 -11 52 9 15 9 23 -1 34 -10 13 -9 18 9
27 19 10 20 9 14 -14 -5 -20 -2 -26 10 -26 9 0 16 5 16 11 0 8 4 8 15 -1 12
-10 21 -5 52 23 20 20 42 33 47 29 6 -3 5 -7 -2 -10 -17 -5 -15 -32 2 -32 7 0
16 8 20 18 3 9 9 22 12 29 3 7 -9 18 -30 27 -22 9 -36 22 -36 33 -1 22 -23 53
-39 53 -16 0 -14 -16 6 -46 15 -24 15 -25 -5 -31 -12 -3 -22 -11 -22 -19 0
-21 18 -26 28 -8 5 10 12 12 15 7 4 -6 -2 -18 -13 -28 -18 -16 -20 -16 -35 -1
-9 9 -14 16 -11 16 3 0 -1 15 -9 34 -14 32 -13 35 7 48 12 8 18 19 14 26 -9
15 -17 15 -38 -2z"/>
<path d="M5016 5072 c-3 -5 -21 -9 -41 -10 -44 -2 -54 -7 -54 -30 0 -9 -3 -29
-7 -44 -6 -25 -3 -28 18 -28 13 0 30 -6 37 -12 10 -11 15 -10 25 4 8 11 17 14
27 7 10 -6 10 -9 2 -9 -7 0 -13 -9 -13 -20 0 -10 -9 -28 -20 -38 -18 -17 -19
-20 -5 -32 11 -9 12 -16 5 -25 -8 -9 -8 -15 0 -20 5 -3 10 -28 10 -56 0 -35 4
-49 14 -49 16 0 28 79 15 95 -15 15 -10 23 10 18 17 -4 20 0 19 28 -1 19 -7
40 -15 47 -12 12 -12 17 0 36 8 11 24 22 36 24 24 4 28 30 6 38 -10 4 -13 14
-9 30 5 18 2 24 -9 24 -9 0 -18 -8 -21 -17 -2 -10 -4 -5 -3 11 2 28 -15 46
-27 28z"/>
<path d="M4765 4980 c-11 -18 4 -28 40 -26 40 4 43 -12 7 -29 -12 -5 -22 -16
-22 -23 0 -16 -24 -42 -39 -42 -6 0 -11 -7 -11 -15 0 -17 11 -19 26 -6 5 5 19
12 31 15 18 6 20 3 16 -13 -5 -21 -26 -33 -58 -35 -17 -1 -19 -7 -17 -35 3
-22 0 -31 -7 -26 -7 3 -10 14 -9 22 2 9 -3 18 -10 21 -10 3 -13 -6 -12 -34 3
-62 1 -72 -18 -91 -24 -23 -19 -103 5 -103 13 0 14 9 9 50 -6 46 -5 50 14 50
11 0 20 3 20 8 0 12 62 12 77 1 9 -9 14 -7 19 5 8 22 1 29 -34 30 -25 1 -28 4
-27 38 0 20 3 34 8 31 4 -2 7 -11 7 -19 0 -8 7 -14 15 -14 8 0 15 -6 15 -14 0
-8 10 -16 23 -18 12 -2 22 -9 22 -17 0 -16 28 -29 63 -30 18 -1 22 4 22 29 0
17 -5 30 -11 30 -7 0 -17 7 -24 16 -9 13 -16 14 -32 6 -11 -6 -29 -9 -40 -6
-22 6 -40 47 -23 52 6 2 10 10 10 17 0 7 7 16 16 19 12 5 14 9 5 20 -9 10 -7
17 5 27 13 11 17 10 25 -2 14 -22 11 -35 -13 -52 -21 -14 -21 -16 -5 -22 17
-7 17 -8 0 -21 -14 -10 -15 -15 -6 -25 10 -10 14 -9 19 4 3 9 12 17 20 17 8 0
15 8 16 18 5 61 5 78 -3 88 -10 12 16 53 27 42 4 -4 1 -14 -5 -22 -13 -15 -7
-36 9 -36 5 0 16 13 24 28 14 26 13 30 -5 45 -20 18 -39 22 -39 10 0 -11 -52
-34 -59 -27 -3 4 0 9 7 11 21 8 13 28 -15 40 -49 20 -71 24 -78 13z"/>
<path d="M5056 4931 c-6 -10 16 -61 27 -61 4 0 7 -11 7 -25 0 -16 -6 -25 -16
-25 -12 0 -15 -6 -10 -26 5 -18 2 -32 -10 -46 -17 -18 -17 -19 4 -25 12 -3 22
-9 22 -14 0 -5 8 -9 18 -9 10 0 27 -7 38 -15 18 -13 17 -14 -13 -12 -18 1 -33
5 -33 10 0 4 -9 7 -20 7 -29 0 -25 -19 8 -31 25 -10 26 -12 7 -20 -58 -24 -92
-79 -50 -79 7 0 12 -10 11 -25 -1 -30 -16 -34 -16 -4 0 18 -4 20 -27 15 -19
-5 -23 -4 -14 3 8 5 11 16 7 27 -6 17 -8 16 -28 -3 -17 -18 -25 -19 -44 -11
-13 6 -24 17 -24 25 0 19 17 16 29 -4 8 -15 12 -16 23 -5 11 11 10 16 -6 27
-17 13 -14 14 32 10 46 -5 52 -3 52 13 0 10 5 23 12 30 13 13 1 20 -42 24 -17
2 -25 -2 -25 -12 0 -8 8 -14 18 -14 10 1 16 -3 14 -10 -3 -6 -11 -9 -18 -8
-53 14 -82 14 -90 1 -6 -10 -9 -10 -9 -1 0 6 -7 12 -15 12 -8 0 -15 -8 -15
-19 0 -12 -7 -18 -17 -17 -10 0 -18 -6 -18 -14 0 -10 8 -14 23 -12 22 3 23 1
17 -28 -6 -29 -5 -31 22 -28 21 2 30 -2 38 -20 6 -15 16 -21 28 -18 9 2 17 0
17 -6 0 -6 9 -8 20 -5 14 4 23 -3 34 -23 15 -31 12 -42 -9 -34 -7 3 -11 14 -8
25 4 13 0 19 -10 19 -21 0 -39 -34 -30 -57 6 -16 5 -16 -10 -5 -9 8 -13 20
-10 29 5 13 1 15 -20 11 -15 -3 -27 -1 -27 3 0 5 5 9 10 9 17 0 11 25 -9 37
-23 14 -61 6 -61 -13 0 -8 11 -14 27 -14 25 0 25 -1 10 -18 -10 -10 -17 -22
-17 -26 0 -4 -6 -13 -12 -20 -11 -11 -15 -11 -25 3 -12 15 -14 15 -24 -1 -15
-27 -39 -22 -39 7 0 16 -6 25 -16 25 -11 0 -14 -8 -12 -32 2 -18 6 -31 9 -28
3 3 13 -1 22 -9 13 -10 20 -11 30 -2 16 13 37 -4 37 -31 0 -10 7 -18 16 -18
12 0 15 6 10 24 -7 27 8 44 20 24 5 -7 8 -22 9 -33 0 -13 6 -19 18 -17 9 2 17
-2 17 -8 0 -5 6 -10 14 -10 10 0 14 11 13 35 -1 34 8 54 19 43 13 -14 6 -70
-12 -89 -10 -12 -18 -23 -16 -25 8 -14 -4 -22 -53 -34 -30 -7 -55 -14 -55 -16
0 -1 4 -14 10 -28 6 -17 6 -27 -1 -32 -7 -4 -4 -13 6 -24 10 -11 12 -20 6 -24
-5 -4 -16 3 -25 15 -17 24 -40 16 -31 -11 3 -10 0 -22 -6 -26 -9 -5 -7 -11 5
-20 10 -7 16 -22 14 -36 -3 -21 -4 -21 -25 13 -19 29 -21 41 -13 69 5 18 7 36
5 40 -6 10 -55 0 -55 -11 0 -5 -6 -9 -14 -9 -16 0 -29 -41 -17 -53 13 -13 31
1 31 24 0 10 5 19 10 19 16 0 12 -47 -5 -54 -8 -3 -15 -12 -15 -20 0 -8 -6
-16 -12 -19 -9 -3 -6 -11 9 -26 12 -11 26 -21 31 -21 17 0 34 -28 22 -35 -5
-3 -10 -2 -10 4 0 5 -10 13 -22 17 -26 8 -48 -17 -48 -58 0 -19 -4 -26 -13
-22 -8 3 -20 -2 -27 -11 -7 -8 -23 -15 -35 -15 -17 0 -24 -8 -30 -32 -4 -18
-9 -27 -12 -20 -8 21 -36 14 -30 -8 3 -14 -3 -30 -19 -47 -14 -15 -22 -33 -20
-40 4 -8 -5 -18 -20 -23 -36 -14 -45 -12 -42 7 2 12 -7 19 -30 24 -18 4 -36
10 -40 14 -4 4 7 4 25 1 33 -8 57 9 29 20 -9 3 -16 15 -16 25 0 10 -6 19 -14
19 -20 0 -28 27 -10 34 24 9 36 7 28 -6 -4 -6 0 -16 8 -22 9 -7 20 -32 25 -56
9 -48 36 -63 41 -23 2 12 10 27 18 33 18 16 18 60 0 60 -7 0 -17 -10 -21 -22
-7 -21 -7 -22 -12 -4 -6 22 24 49 45 41 21 -8 62 6 62 21 0 17 -10 17 -44 4
-25 -9 -26 -8 -20 17 6 21 4 25 -8 20 -9 -3 -21 0 -27 6 -8 8 -15 7 -27 -5
-15 -15 -18 -15 -36 1 -11 9 -24 26 -29 38 -5 14 -14 20 -22 17 -8 -3 -17 2
-20 10 -4 9 -13 16 -21 16 -8 0 -16 9 -18 20 -3 22 -24 24 -22 3 2 -14 -6 -16
-30 -7 -23 9 -20 24 4 24 20 0 27 14 11 24 -4 3 -22 1 -39 -3 -26 -8 -33 -6
-45 12 -17 26 -42 15 -27 -13 14 -25 13 -37 -2 -22 -16 16 -28 15 -28 -3 0 -8
6 -15 14 -15 24 0 30 -22 11 -36 -18 -14 -40 -9 -30 6 7 11 -12 23 -24 15 -6
-3 -6 -18 0 -37 5 -20 5 -36 -2 -44 -15 -18 6 -27 31 -14 23 12 25 21 8 38 -8
8 -9 12 -1 12 6 0 18 -7 27 -15 8 -8 19 -15 25 -15 6 0 11 -7 11 -15 0 -18
-12 -19 -28 -3 -14 14 -27 -13 -19 -42 7 -27 -7 -25 -27 3 -12 15 -18 18 -22
10 -3 -7 -10 -13 -15 -13 -11 0 -49 -32 -49 -42 0 -15 26 -8 48 13 19 17 23
18 28 5 3 -9 12 -16 20 -16 10 0 13 -7 8 -25 -4 -15 -2 -25 5 -25 6 0 11 -4
11 -10 0 -13 -27 -13 -32 -1 -4 12 -98 1 -98 -11 0 -5 9 -12 20 -16 19 -7 19
-8 1 -19 -17 -11 -20 -9 -26 15 -6 29 -39 57 -55 47 -17 -10 -59 6 -53 21 3 8
-1 14 -10 14 -11 0 -15 -9 -15 -30 1 -21 6 -30 18 -30 10 0 24 -8 31 -17 13
-15 11 -16 -17 -10 -18 3 -36 1 -43 -6 -8 -8 -11 -8 -11 1 0 7 -7 12 -15 12
-21 0 -19 -17 5 -42 17 -19 20 -19 26 -4 4 11 13 15 26 10 12 -4 24 -1 29 7 7
11 10 9 15 -8 4 -13 13 -23 20 -23 15 0 18 12 7 24 -10 9 -11 46 -2 46 13 0
36 -55 34 -81 -1 -18 -7 -23 -23 -21 -15 2 -22 -2 -22 -12 0 -9 8 -16 19 -16
25 0 37 -18 22 -33 -9 -9 -15 -8 -22 6 -12 21 -29 13 -29 -14 0 -22 0 -22 -34
-9 -14 5 -26 15 -26 22 0 7 -9 19 -21 26 -15 9 -18 17 -10 25 6 8 6 18 0 27
-8 13 -12 12 -24 -4 -15 -19 -15 -19 -15 2 0 13 -6 22 -15 22 -10 0 -15 -10
-15 -32 -1 -49 -23 -73 -65 -70 -26 2 -35 -1 -35 -13 0 -15 16 -20 58 -16 26
2 66 37 57 51 -3 5 -1 11 5 15 6 3 13 -1 16 -9 3 -9 12 -16 18 -16 7 0 22 -23
34 -50 27 -61 27 -59 3 -53 -34 9 -34 -17 -1 -29 23 -8 28 -13 18 -19 -20 -13
-26 -11 -58 23 -22 23 -34 28 -41 21 -7 -7 -17 -9 -24 -7 -7 3 -16 1 -20 -5
-10 -17 -38 -13 -31 4 8 21 -11 68 -24 60 -6 -4 -8 -15 -5 -26 6 -17 3 -19
-22 -13 -44 10 -47 10 -51 -8 -3 -14 3 -16 38 -13 35 3 40 2 29 -11 -6 -8 -8
-14 -5 -14 4 0 2 -8 -3 -18 -10 -19 2 -40 34 -58 11 -6 22 -20 23 -30 7 -35
62 -61 62 -29 0 8 -4 15 -10 15 -5 0 -16 16 -24 35 -8 19 -22 35 -30 35 -8 0
-20 9 -27 21 -10 19 -9 20 11 14 12 -4 27 -1 35 5 8 7 15 9 15 5 0 -4 6 -2 13
4 11 8 20 6 40 -12 32 -27 34 -37 8 -37 -11 0 -21 9 -24 21 -8 29 -27 14 -27
-22 0 -27 2 -29 41 -29 24 0 38 -4 34 -10 -3 -5 -15 -10 -26 -10 -10 0 -19 -4
-19 -10 0 -17 32 -48 45 -43 22 8 26 -16 5 -27 -11 -6 -18 -15 -15 -20 9 -15
-12 -20 -24 -6 -8 10 -9 16 -1 21 15 9 12 35 -5 35 -8 0 -15 -6 -15 -13 0 -8
-10 -13 -22 -13 -13 1 -22 -4 -20 -11 1 -7 -2 -13 -7 -13 -12 0 -22 27 -15 44
7 18 -15 31 -29 17 -8 -8 -8 -14 0 -22 12 -12 6 -49 -8 -49 -5 0 -9 -7 -9 -16
0 -14 -3 -14 -15 -4 -12 10 -18 10 -29 1 -9 -7 -17 -8 -20 -3 -3 6 1 12 9 16
8 3 15 12 15 21 0 11 6 14 25 9 18 -4 25 -2 25 9 0 8 -10 17 -22 21 -33 9 -38
8 -38 -8 0 -15 -37 -32 -47 -22 -4 3 -1 6 5 6 7 0 12 5 12 10 0 6 9 19 20 30
11 11 20 16 20 10 0 -5 6 -10 13 -10 14 0 39 49 31 61 -9 15 -24 10 -32 -12
-7 -18 -10 -19 -21 -6 -10 13 -9 18 8 27 29 15 27 34 -3 26 -17 -4 -26 -1 -30
11 -5 12 -10 13 -17 6 -8 -8 -7 -20 4 -41 13 -28 13 -33 -4 -61 -10 -17 -27
-39 -38 -50 -19 -19 -19 -19 -18 15 1 27 4 33 18 29 25 -8 35 16 14 32 -15 10
-16 16 -7 25 16 16 15 38 -1 38 -22 0 -48 35 -50 66 -2 22 2 29 18 29 11 0 20
6 19 13 -3 36 -5 42 -14 42 -15 0 -51 -40 -45 -49 2 -5 -2 -12 -10 -15 -12 -4
-13 -10 -6 -25 10 -18 8 -19 -29 -14 -36 5 -40 3 -40 -16 0 -11 -4 -21 -10
-21 -5 0 -10 14 -10 30 0 24 -4 30 -22 30 -17 0 -19 3 -10 12 7 7 18 13 25 14
7 0 20 2 30 2 26 3 21 32 -6 32 -13 0 -27 -3 -31 -7 -10 -10 -46 -11 -46 -1 0
4 -7 8 -15 8 -8 0 -15 -7 -15 -15 0 -8 7 -15 16 -15 8 0 12 -4 9 -10 -3 -5
-19 -10 -36 -10 -19 0 -29 -5 -29 -15 0 -8 -9 -20 -20 -27 -28 -18 -26 -42 3
-33 12 4 30 7 39 6 22 0 34 19 18 29 -7 5 0 9 19 12 33 5 41 -7 17 -26 -23
-17 -32 -66 -13 -66 8 0 17 -5 19 -10 5 -15 68 0 68 16 0 8 -4 14 -10 14 -5 0
-10 4 -10 9 0 4 11 6 25 3 16 -3 25 -11 25 -23 0 -11 -4 -19 -10 -19 -5 0 -10
-13 -10 -28 0 -26 5 -30 50 -42 30 -8 47 -17 41 -23 -5 -5 -5 -24 -1 -42 6
-26 4 -32 -6 -28 -10 4 -34 50 -38 75 -2 16 -17 20 -30 9 -11 -9 -15 -9 -18 1
-3 7 -19 13 -36 14 -30 2 -32 0 -32 -35 0 -32 -39 -105 -40 -73 0 7 -13 12
-31 12 -26 0 -30 -3 -26 -19 3 -14 -2 -21 -16 -25 -29 -7 -34 1 -11 18 10 8
16 18 12 22 -4 4 4 13 18 21 20 10 30 10 41 2 19 -16 27 -4 28 38 1 23 8 41
20 49 15 11 16 17 7 26 -9 9 -15 9 -24 0 -25 -25 -43 -14 -43 28 0 22 -4 40
-10 40 -9 0 -11 -6 -14 -55 -2 -18 -2 -19 -12 -2 -5 9 -16 17 -24 17 -8 0 -17
15 -21 35 -6 34 -27 47 -37 23 -3 -7 -6 -3 -6 10 -1 33 -31 28 -31 -5 -1 -25
-2 -26 -14 -10 -7 9 -18 17 -24 17 -18 0 -21 27 -5 50 12 17 13 27 5 45 -6 13
-8 26 -5 29 10 10 43 -25 43 -46 0 -10 7 -18 15 -18 9 0 15 9 15 25 0 14 -5
25 -10 25 -6 0 -8 11 -4 26 6 24 5 26 -17 19 -20 -6 -22 -5 -11 6 18 19 15 27
-15 43 -20 11 -23 15 -10 16 21 0 23 30 2 30 -8 0 -15 -4 -15 -8 0 -4 -12 -9
-26 -10 -14 -1 -30 -5 -35 -8 -15 -9 2 -26 21 -21 18 5 56 -30 45 -41 -12 -13
-61 -6 -77 10 -10 10 -17 27 -15 39 3 33 -20 34 -26 2 -6 -34 10 -54 57 -73
50 -19 54 -61 10 -95 -39 -30 -44 -31 -44 -5 0 11 -6 20 -14 20 -9 0 -12 7 -9
20 4 14 0 20 -11 20 -9 0 -16 -7 -16 -16 0 -9 -7 -22 -17 -29 -19 -14 -10 -34
15 -31 9 2 2 -2 -15 -7 -18 -6 -33 -14 -33 -19 0 -4 -9 -8 -20 -8 -11 0 -20
-7 -20 -15 0 -18 46 -21 53 -2 2 6 8 9 12 5 4 -4 -2 -20 -14 -37 -28 -39 -8
-54 24 -17 12 14 25 23 28 20 3 -3 13 -7 23 -8 13 -2 19 -12 20 -33 1 -16 9
-41 18 -54 12 -20 14 -32 5 -62 -7 -25 -7 -43 1 -56 7 -14 7 -22 -1 -27 -13
-7 -31 15 -22 28 2 5 -1 15 -7 23 -6 8 -9 19 -5 25 18 30 13 69 -14 99 -30 33
-51 40 -51 16 0 -8 5 -15 10 -15 6 0 10 -4 10 -10 0 -5 -13 -10 -30 -10 -16 0
-30 -4 -30 -9 0 -5 -9 -11 -19 -14 -13 -3 -22 -17 -26 -41 -4 -20 -13 -36 -20
-36 -7 0 -15 -9 -18 -21 -4 -15 -11 -19 -25 -14 -25 7 -38 -11 -22 -30 10 -12
9 -15 -4 -15 -10 0 -16 9 -16 25 0 25 -17 33 -35 17 -6 -5 -21 -3 -35 4 -14 8
-23 14 -20 14 3 1 20 3 38 5 42 4 60 19 45 37 -6 7 -13 24 -15 38 -1 14 -7 25
-13 25 -15 0 -18 -44 -5 -61 10 -12 8 -14 -15 -14 -24 0 -26 2 -15 15 9 11 10
19 2 27 -13 13 -35 1 -29 -16 3 -8 -5 -13 -24 -13 l-28 0 26 23 c31 27 24 41
-25 49 -69 11 -88 17 -72 23 27 10 54 42 44 52 -6 6 -19 1 -37 -16 -22 -21
-34 -24 -59 -19 -18 4 -26 10 -19 14 6 4 9 14 6 23 -3 8 2 21 11 29 16 13 17
12 11 -13 -8 -31 5 -44 23 -23 7 8 21 15 32 15 13 0 18 6 16 18 -2 10 -11 16
-22 14 -25 -4 -46 16 -46 45 0 15 -5 23 -12 20 -7 -2 -12 -14 -11 -26 2 -11
-2 -21 -7 -21 -6 0 -10 5 -10 11 0 6 -7 8 -15 5 -11 -4 -15 0 -13 12 2 10 -3
17 -12 17 -9 0 -16 -11 -18 -27 -3 -29 -22 -39 -22 -12 0 9 -6 14 -12 11 -12
-3 -18 -91 -7 -101 2 -3 18 -6 34 -8 24 -2 30 1 29 15 -2 21 12 23 19 3 3 -8
-1 -20 -10 -27 -23 -20 -34 -58 -23 -79 7 -13 7 -21 -2 -26 -6 -4 -14 -2 -16
4 -5 16 -29 15 -35 0 -4 -8 -6 -7 -6 3 -1 9 9 19 21 22 22 6 22 6 3 27 -15 16
-16 20 -3 15 20 -8 34 13 20 27 -8 8 -16 7 -27 -2 -8 -7 -15 -11 -16 -9 0 2
-2 16 -3 31 -2 35 -22 56 -37 41 -9 -9 -6 -19 9 -41 19 -26 20 -31 6 -58 -9
-16 -13 -39 -11 -52 3 -14 0 -21 -7 -19 -12 4 -12 16 -2 85 5 32 3 42 -8 42
-7 0 -19 7 -26 15 -10 12 -9 18 5 31 12 12 13 20 5 28 -8 8 -16 4 -30 -14 -11
-14 -20 -20 -20 -15 0 6 4 15 10 21 6 6 6 15 -1 24 -8 13 -12 12 -25 -5 -16
-20 -16 -19 -10 5 3 14 6 29 6 33 0 5 8 6 19 2 15 -4 20 1 26 27 l8 33 6 -30
c4 -20 2 -31 -6 -33 -7 -2 -13 -10 -13 -19 0 -12 6 -14 27 -9 16 4 39 8 52 9
13 1 26 7 28 14 6 17 -16 26 -32 13 -17 -14 -20 -8 -29 53 -4 32 -2 38 10 33
9 -3 18 -6 21 -6 3 0 0 -7 -7 -15 -14 -17 -4 -39 15 -31 7 2 16 -2 19 -9 8
-22 36 -6 36 19 0 12 -5 27 -12 34 -14 14 0 16 21 3 8 -5 11 -16 7 -29 -9 -26
13 -40 29 -19 17 23 61 21 86 -4 15 -15 24 -18 32 -10 13 13 -8 41 -32 42 -10
0 -11 2 -3 6 6 2 12 11 12 19 0 16 -26 19 -35 4 -10 -17 -45 -12 -39 5 4 8 12
15 20 15 8 0 14 7 14 15 0 8 -7 15 -15 15 -8 0 -15 -4 -15 -9 0 -5 -9 -11 -19
-14 -28 -7 -16 15 19 35 17 9 30 24 30 31 0 19 19 25 50 16 24 -7 25 -7 3 -14
-19 -6 -33 -31 -33 -62 0 -22 20 -14 30 12 11 29 18 31 35 8 7 -9 17 -13 24
-8 9 5 7 12 -8 26 -23 22 -26 35 -11 44 6 3 13 -2 17 -12 4 -10 16 -25 26 -33
17 -14 18 -17 3 -29 -18 -15 -21 -41 -5 -41 18 0 41 30 35 46 -5 12 -2 15 11
9 10 -3 30 -9 46 -12 22 -4 25 -8 16 -19 -6 -8 -9 -21 -5 -29 3 -9 0 -15 -9
-15 -16 0 -21 -45 -7 -54 12 -7 35 10 28 22 -6 10 34 25 43 17 2 -3 -3 -13
-13 -24 -13 -14 -14 -24 -6 -46 7 -17 15 -25 24 -22 13 5 13 0 1 -40 -7 -24
-21 -53 -29 -62 -29 -32 -8 -59 21 -30 9 9 10 7 6 -10 -3 -11 -12 -21 -19 -21
-21 0 -17 -18 6 -30 15 -8 19 -17 14 -35 -5 -19 -2 -25 11 -25 12 0 16 6 12
20 -3 12 0 20 7 20 21 0 71 74 61 90 -10 15 -25 12 -25 -6 0 -21 -24 -44 -46
-44 -17 0 -17 1 1 13 10 8 15 19 11 25 -3 6 3 13 14 17 27 9 27 39 0 32 -15
-4 -20 0 -20 14 0 13 6 18 22 16 17 -1 24 5 31 31 6 17 16 32 23 32 17 0 18
16 3 25 -12 8 -41 -20 -52 -49 -10 -27 -21 -12 -13 19 4 14 12 25 20 25 14 0
46 31 46 44 0 5 -11 5 -25 2 -16 -4 -25 -2 -25 5 0 6 -9 9 -20 6 -14 -3 -20 0
-20 10 0 11 6 14 23 9 37 -12 50 -12 54 0 2 6 -4 14 -14 17 -10 4 -26 12 -35
19 -14 10 -20 9 -36 -5 -24 -22 -44 -22 -40 1 2 9 13 18 26 20 12 2 22 10 22
18 0 11 -9 13 -35 11 -19 -3 -35 -1 -35 4 0 4 -10 9 -22 11 -14 2 -23 10 -23
20 0 27 -16 34 -30 14 -8 -10 -18 -15 -24 -11 -16 9 -13 35 4 35 8 0 15 7 15
15 0 18 -19 19 -42 1 -13 -10 -32 -11 -74 -4 -38 6 -61 5 -68 -2 -5 -5 -18
-10 -27 -10 -20 0 -31 54 -15 70 8 8 6 15 -7 25 -16 11 -16 14 -2 28 18 19 20
37 2 37 -18 0 -37 -21 -37 -41 0 -19 -33 -35 -62 -30 -11 1 -18 -4 -18 -13 0
-9 3 -16 8 -16 4 0 8 -11 8 -25 2 -28 -3 -30 -29 -11 -14 11 -15 15 -5 19 10
4 8 10 -6 21 -17 14 -18 16 -3 16 9 0 17 7 17 15 0 18 -21 20 -38 3 -9 -9 -12
-9 -12 1 0 7 -8 12 -18 11 -27 -3 -60 11 -67 27 -9 24 4 29 19 8 12 -17 16
-17 31 -5 15 12 18 12 26 -2 6 -11 20 -15 44 -14 19 2 35 -1 35 -5 0 -5 7 -9
15 -9 8 0 15 7 15 15 0 8 -9 15 -19 15 -13 0 -21 8 -23 23 -4 29 -22 29 -26
-1 -3 -19 -6 -21 -18 -11 -20 17 -17 36 7 42 30 8 14 26 -19 23 -19 -2 -28
-10 -30 -25 -3 -22 -22 -30 -22 -10 0 8 -19 10 -61 6 -33 -3 -63 -7 -65 -10
-3 -3 1 -15 8 -26 9 -16 10 -24 2 -29 -16 -10 -29 -72 -15 -72 6 0 11 -4 11
-10 0 -24 -31 -7 -37 20 -3 17 -12 30 -19 30 -26 0 -14 18 16 25 17 4 30 13
30 22 0 12 -6 14 -27 8 -15 -3 -31 -12 -35 -18 -5 -8 -12 -6 -23 8 -15 20 -15
20 -30 1 -8 -11 -15 -15 -15 -10 0 6 11 21 25 34 22 21 25 21 25 6 0 -38 79 4
80 43 0 9 -7 11 -23 7 -16 -4 -27 1 -39 17 l-17 22 -10 -26 c-5 -15 -24 -37
-41 -49 -22 -15 -29 -27 -25 -40 5 -15 2 -17 -15 -13 -14 4 -20 1 -20 -11 0
-9 8 -16 19 -16 11 0 23 -5 27 -12 4 -7 3 -8 -5 -4 -6 4 -18 3 -25 -3 -9 -8
-18 -5 -34 10 -28 25 -28 37 1 44 21 6 50 49 39 60 -11 11 -32 5 -32 -10 0 -8
-7 -15 -15 -15 -33 0 0 42 41 52 15 4 21 1 20 -11 0 -9 6 -16 14 -16 11 0 14
10 12 40 -3 48 -20 85 -39 85 -16 0 -17 -22 -1 -38 9 -9 9 -15 0 -24 -9 -9
-12 -8 -12 5 0 9 -5 17 -10 17 -6 0 -9 12 -8 26 2 15 -3 29 -9 31 -8 3 -13 -4
-13 -16 0 -11 -5 -23 -11 -26 -7 -5 -2 -16 12 -31 19 -20 20 -24 6 -24 -9 0
-22 -8 -29 -19 -11 -18 -12 -17 -35 7 -12 14 -23 29 -23 33 0 5 -9 9 -20 9
-15 0 -20 7 -20 30 l0 29 47 -50 c52 -56 82 -54 42 2 -15 22 -19 34 -11 37 20
6 13 30 -10 34 -12 2 -23 8 -25 15 -3 7 3 9 16 6 17 -4 21 0 22 23 1 16 1 33
0 38 -1 5 5 6 14 2 10 -3 18 1 22 12 3 9 15 27 26 39 l20 22 -36 36 c-20 20
-35 42 -34 48 1 7 -5 12 -13 12 -24 0 -13 -47 18 -73 20 -18 23 -25 13 -31 -7
-5 -10 -14 -7 -20 4 -6 1 -11 -8 -11 -8 0 -18 5 -21 10 -3 6 -1 10 4 10 6 0
11 7 11 15 0 8 -4 15 -10 15 -5 0 -10 7 -10 15 0 8 -9 15 -20 15 -23 0 -26 20
-7 39 10 10 8 15 -8 27 -11 8 -25 12 -32 10 -7 -3 -10 1 -7 9 7 16 -25 55 -44
55 -12 0 -12 3 -2 15 11 13 9 19 -8 35 -24 23 -38 25 -45 8 -3 -7 -3 5 -1 26
3 45 -10 76 -32 76 -10 0 -13 -7 -8 -25 5 -21 3 -25 -16 -25 -19 0 -20 3 -10
15 19 23 2 38 -23 20 -12 -8 -30 -15 -40 -15 -16 0 -17 3 -7 15 7 8 19 15 26
15 8 0 14 4 14 10 0 5 7 7 15 4 9 -4 17 1 21 12 3 11 9 26 14 36 6 11 4 20 -5
28 -8 7 -15 18 -15 25 0 8 -6 15 -12 18 -7 2 -9 8 -5 13 5 5 24 -8 44 -31 l35
-40 32 37 c21 24 46 40 67 45 31 6 33 5 20 -11 -10 -12 -11 -20 -3 -28 15 -15
31 -2 25 21 -3 10 0 22 6 25 6 4 13 -4 17 -19 3 -14 13 -25 21 -25 11 0 13 6
8 23 -3 12 -9 32 -12 45 -5 21 -33 32 -33 13 0 -4 -19 -11 -42 -14 -24 -3 -44
-11 -46 -16 -2 -6 -12 -11 -23 -11 -19 0 -31 21 -46 78 -5 23 -4 25 9 15 16
-14 28 -8 28 13 0 8 -11 16 -24 20 -26 6 -41 30 -25 39 12 8 2 25 -15 25 -8 0
-16 -12 -19 -27 -4 -21 0 -32 16 -45 12 -10 16 -18 9 -18 -15 0 -7 -66 10 -87
19 -24 3 -34 -20 -13 -17 16 -20 25 -13 34 12 14 5 26 -16 26 -7 0 -13 -9 -13
-20 0 -11 -7 -20 -15 -20 -8 0 -15 -7 -15 -15 0 -20 -10 -19 -25 2 -7 9 -17
13 -23 9 -16 -10 26 -66 49 -66 18 0 45 -27 36 -36 -8 -9 -87 39 -87 54 0 6
-5 12 -11 12 -5 0 -9 8 -7 18 1 9 -1 22 -5 29 -5 8 4 14 30 19 46 9 71 30 55
46 -9 9 -16 7 -30 -5 -25 -22 -107 -23 -116 -2 -3 9 -11 15 -18 14 -27 -3 -36
2 -41 21 -6 23 5 26 22 6 7 -8 23 -17 36 -20 14 -4 25 -11 25 -16 0 -6 7 -10
15 -10 19 0 19 24 0 40 -16 13 -21 40 -7 40 4 0 13 -5 20 -12 9 -9 15 -9 25 1
10 10 9 14 -6 22 -12 7 -15 17 -11 35 4 17 2 24 -9 24 -8 0 -17 -13 -20 -29
-7 -31 -42 -48 -63 -30 -7 6 -22 8 -33 4 -24 -7 -37 11 -21 30 10 12 9 16 -5
21 -10 4 -21 1 -27 -7 -7 -11 -11 -11 -15 -1 -7 17 -33 15 -33 -3 0 -8 -4 -15
-8 -15 -11 0 -32 -46 -32 -70 0 -13 -7 -20 -19 -20 -27 0 -42 -23 -44 -69 -1
-28 -5 -40 -13 -37 -17 7 -37 -19 -37 -48 0 -18 -4 -22 -18 -19 -38 10 -18
-22 26 -42 50 -21 55 -30 25 -38 -13 -3 -20 0 -20 9 0 21 -30 17 -31 -3 0 -11
-3 -13 -6 -5 -2 6 -13 12 -24 12 -20 0 -26 -15 -9 -25 17 -11 11 -33 -7 -29
-11 2 -27 -8 -40 -25 -26 -33 -40 -81 -24 -81 6 0 11 -5 11 -10 0 -6 -10 -8
-24 -4 -21 5 -25 1 -31 -25 -3 -17 -4 -35 0 -41 3 -5 -1 -10 -9 -10 -9 0 -16
-7 -16 -15 0 -21 26 -19 40 3 11 16 11 16 6 -1 -3 -10 -6 -21 -6 -23 0 -2 -11
-4 -24 -4 -24 0 -43 -25 -27 -35 14 -8 71 7 71 19 0 6 5 4 10 -4 15 -23 12
-29 -10 -23 -12 3 -20 0 -20 -7 0 -8 -10 -10 -32 -6 -28 5 -35 2 -44 -17 -6
-13 -9 -28 -6 -35 6 -20 29 -13 36 11 5 18 8 20 16 7 13 -20 -22 -50 -51 -43
-20 6 -21 3 -18 -46 3 -43 1 -51 -13 -51 -13 0 -18 -8 -18 -29 0 -17 -4 -32
-10 -36 -5 -3 -9 -26 -8 -50 0 -25 -5 -51 -11 -59 -10 -11 -8 -18 9 -33 l20
-20 -22 1 c-15 1 -23 -5 -23 -16 0 -9 -3 -20 -7 -23 -4 -4 -4 -20 -1 -36 4
-19 1 -29 -7 -29 -14 0 -4 -61 12 -71 5 -3 3 -9 -5 -12 -8 -3 -17 -20 -19 -39
-3 -18 -7 -39 -9 -47 -3 -10 8 -17 33 -24 25 -6 35 -13 31 -23 -3 -7 2 -17 11
-20 9 -3 16 -10 16 -15 0 -5 -11 -2 -25 7 -14 9 -25 23 -25 31 0 8 -7 13 -17
11 -13 -2 -18 -14 -19 -46 -1 -46 12 -64 30 -41 11 14 56 21 56 9 0 -10 -41
-29 -70 -32 -14 -2 -25 -9 -25 -18 0 -10 8 -14 22 -12 12 2 24 -2 28 -8 4 -6
-4 -10 -20 -10 -24 0 -26 -3 -21 -26 4 -15 2 -32 -5 -40 -10 -12 -9 -18 0 -27
10 -9 15 -8 25 5 12 16 15 16 37 -9 20 -22 21 -25 5 -19 -29 10 -64 -34 -61
-78 2 -19 7 -41 11 -48 5 -7 7 -20 6 -30 -2 -9 2 -19 8 -23 15 -9 12 -25 -5
-25 -17 0 -20 -25 -5 -35 6 -3 7 -17 4 -30 -3 -12 -1 -26 5 -29 6 -4 11 -18
11 -31 0 -13 5 -27 10 -30 6 -3 7 -17 4 -30 -3 -12 1 -36 10 -53 9 -17 13 -38
10 -46 -4 -9 -2 -22 4 -29 10 -12 23 -63 27 -102 3 -28 48 -149 58 -153 4 -2
7 -17 7 -33 0 -22 5 -29 20 -29 22 0 26 -10 9 -27 -16 -16 17 -62 50 -69 14
-3 35 -9 46 -14 17 -7 15 -9 -12 -9 -37 -1 -53 -19 -30 -36 9 -6 19 -23 22
-38 7 -28 30 -36 38 -14 4 9 7 9 15 -1 5 -8 15 -13 23 -12 27 4 39 0 39 -14 0
-11 -8 -12 -35 -6 -19 4 -37 5 -39 1 -7 -13 -4 -71 4 -71 21 0 59 -48 65 -82
4 -20 13 -39 21 -42 8 -3 14 -15 14 -26 0 -11 6 -20 14 -20 8 0 16 -7 20 -15
3 -9 12 -12 22 -8 13 5 15 2 10 -14 -7 -22 11 -73 27 -73 5 0 11 9 14 20 3 11
9 17 15 14 5 -3 6 -15 3 -25 -5 -14 1 -28 20 -45 14 -13 21 -24 16 -24 -6 0
-11 -9 -11 -20 0 -11 7 -20 15 -20 8 0 15 -4 15 -9 0 -13 62 -71 77 -71 7 0
13 -8 13 -19 0 -11 9 -21 23 -25 32 -9 35 -8 57 14 11 11 20 16 20 11 0 -5
-11 -19 -25 -32 -13 -13 -25 -30 -25 -36 0 -19 27 -16 38 4 7 11 15 14 28 9
18 -7 17 -9 -4 -17 -26 -10 -25 -35 1 -33 13 1 15 -4 11 -22 -8 -32 23 -33 35
-2 8 21 9 19 16 -15 6 -30 11 -38 25 -34 10 2 24 1 31 -3 10 -7 10 -11 -1 -25
-16 -19 -6 -31 32 -40 22 -6 27 -3 30 17 4 21 5 21 13 4 5 -12 3 -21 -6 -27
-17 -10 -4 -25 26 -31 12 -2 21 -13 23 -26 4 -28 15 -28 53 0 25 19 33 20 47
10 9 -7 25 -15 35 -18 9 -4 17 -13 17 -20 0 -12 -4 -12 -22 -2 -13 7 -27 19
-33 26 -8 10 -15 9 -33 -3 -25 -18 -20 -39 8 -32 12 3 16 0 13 -12 -4 -18 49
-47 67 -36 5 3 10 -1 10 -9 0 -9 9 -16 20 -16 11 0 23 -7 26 -15 9 -24 64 -47
80 -34 11 9 14 7 14 -10 0 -12 8 -25 18 -28 9 -4 23 -13 30 -20 7 -7 20 -13
29 -13 8 0 44 -13 80 -30 96 -45 113 -47 120 -19 6 22 7 21 18 -11 7 -21 19
-36 31 -38 10 -2 24 -11 31 -19 15 -20 60 -10 66 15 3 9 5 2 6 -15 1 -41 16
-42 50 -5 26 29 84 55 62 28 -8 -10 -6 -18 9 -31 15 -13 17 -21 9 -31 -12 -14
-4 -34 12 -34 6 0 17 7 25 15 17 17 39 20 29 5 -11 -18 15 -39 43 -36 15 2 28
10 30 20 5 23 20 20 24 -6 2 -18 10 -23 43 -25 22 -2 51 3 64 9 20 11 26 10
42 -11 11 -14 25 -21 34 -17 8 3 15 1 15 -4 0 -5 12 -9 28 -9 15 0 46 -3 70
-7 27 -4 42 -2 42 5 0 6 7 8 15 5 9 -4 18 2 23 16 l8 22 17 -26 c14 -21 23
-25 44 -20 38 10 65 41 57 66 -4 14 -3 18 6 13 8 -5 10 -19 5 -42 -6 -34 -5
-35 20 -31 14 3 28 1 31 -3 3 -5 15 -7 27 -4 12 3 42 8 67 10 124 12 156 18
169 34 10 12 15 13 18 4 6 -17 28 -16 66 1 51 23 61 24 73 8 14 -19 34 -7 34
19 0 12 7 19 19 19 11 0 22 9 26 19 4 12 12 18 21 14 12 -5 12 -7 -2 -18 -39
-28 30 -47 72 -20 12 8 48 21 80 30 32 9 66 19 74 22 8 4 21 5 28 4 8 -1 16 7
19 18 4 16 11 19 29 15 15 -4 24 -2 24 5 0 7 9 9 24 5 18 -4 27 -1 35 14 6 11
7 23 3 28 -4 5 0 3 8 -3 17 -13 70 -6 70 9 0 6 6 8 14 5 15 -6 56 32 56 51 0
17 21 26 30 12 5 -7 15 -10 25 -6 14 5 15 9 5 21 -6 8 -8 20 -4 26 5 9 10 6
15 -9 11 -29 18 -28 57 8 18 16 43 32 55 35 13 4 31 19 42 35 11 16 23 26 28
23 15 -9 57 7 57 23 0 10 6 13 18 10 13 -4 29 5 52 31 19 21 33 43 32 49 -1 7
8 9 24 6 22 -4 26 -1 24 19 -1 13 -1 33 0 44 1 18 2 18 11 -3 10 -26 35 -25
33 2 -1 10 6 16 17 16 11 0 19 5 19 10 0 13 37 50 49 50 6 0 9 21 7 46 -2 41
-1 44 11 28 7 -10 13 -26 13 -36 0 -10 7 -18 15 -18 9 0 15 10 15 26 0 19 4
25 15 20 17 -6 35 29 35 70 0 21 3 24 25 18 19 -5 25 -2 25 9 0 9 -5 19 -11
23 -16 9 10 24 44 24 17 0 27 5 27 15 0 8 -6 15 -14 15 -11 0 -26 20 -26 35 0
2 12 -3 28 -11 39 -20 49 -18 57 13 3 15 12 31 18 35 8 5 7 11 -2 22 -7 8 -10
20 -6 26 4 6 1 19 -7 28 -12 15 -11 16 5 3 9 -7 17 -22 17 -32 0 -11 7 -19 16
-19 12 0 15 6 10 26 -6 22 -4 25 13 19 24 -7 37 11 20 31 -6 8 -9 17 -5 21 3
3 6 1 6 -5 0 -7 7 -12 15 -12 8 0 15 9 15 20 0 11 -7 20 -16 20 -11 0 -14 8
-12 28 3 24 7 27 38 27 35 0 72 25 69 48 -3 20 12 47 27 47 8 0 14 6 14 13 0
34 23 86 39 92 14 4 20 18 23 60 3 38 10 60 23 69 11 8 16 20 12 29 -4 10 -2
16 5 14 7 -1 14 6 16 16 4 20 -13 22 -48 4 -14 -7 -35 -11 -47 -9 -19 3 -21 6
-11 22 11 17 13 17 24 2 10 -14 15 -15 25 -5 7 7 28 13 47 13 29 0 34 3 29 20
-3 12 1 24 11 29 14 8 15 13 5 30 -22 35 -17 52 13 45 22 -6 25 -4 22 12 -2
11 -11 18 -21 18 -26 -3 -14 20 12 24 17 3 22 9 18 23 -3 10 -1 19 4 19 5 0 9
6 9 14 0 8 5 16 12 18 6 2 9 11 5 20 -4 11 -13 15 -29 10 -22 -5 -22 -5 -6 11
9 9 21 17 26 17 12 0 27 58 18 67 -3 4 1 17 10 31 8 13 13 31 10 39 -4 9 -1
22 5 29 6 7 8 17 5 22 -3 5 -1 24 4 42 8 26 6 38 -5 50 -14 16 -13 19 7 32 18
12 20 18 12 29 -7 8 -8 22 -3 34 13 33 10 43 -13 48 l-23 4 23 8 c23 8 30 41
10 47 -7 3 -9 11 -3 24 4 10 7 25 6 32 -1 6 3 12 9 12 15 0 12 21 -7 42 -15
17 -15 19 1 31 16 12 17 16 5 35 -12 19 -11 23 4 35 15 10 16 18 8 39 -5 14
-7 35 -4 47 4 17 1 21 -18 22 -17 1 -19 3 -6 6 9 2 17 11 17 20 0 11 -6 14
-22 10 -11 -3 -37 1 -56 9 -42 17 -42 17 -42 0 0 -7 -7 -19 -16 -26 -12 -11
-18 -10 -32 3 -12 13 -13 17 -2 17 7 0 21 7 31 16 14 13 26 14 63 6 26 -5 48
-6 51 -3 10 17 -2 145 -14 149 -7 2 -17 -1 -21 -8 -6 -10 -13 -9 -31 4 l-23
16 31 0 c28 0 33 4 42 37 6 21 7 41 2 47 -5 6 -11 25 -13 41 -2 18 -9 30 -18
30 -8 0 -18 -13 -21 -30 -7 -30 -11 -27 -13 10 -1 14 -8 20 -23 19 -39 -1 -25
15 14 18 35 3 38 6 40 36 2 27 -1 35 -17 39 -19 5 -19 7 -5 22 13 16 13 20 -6
40 -15 16 -18 25 -10 35 8 10 7 17 -5 26 -8 8 -13 22 -10 33 7 29 -32 97 -56
97 -17 0 -18 3 -8 15 9 11 10 18 1 28 -6 8 -8 17 -4 20 3 4 1 13 -5 20 -7 8
-9 17 -5 20 3 4 -2 9 -11 13 -9 3 -16 17 -16 30 0 25 -27 44 -39 27 -3 -5 -14
-12 -23 -16 -14 -5 -18 -1 -18 15 0 19 -4 20 -47 14 -39 -5 -44 -4 -31 6 9 7
18 20 21 28 4 12 6 11 6 -2 1 -12 9 -18 26 -18 13 0 28 -7 33 -16 15 -27 31
-7 27 35 -3 48 -40 95 -55 71 -7 -10 -5 -18 5 -26 21 -15 19 -24 -5 -24 -11 0
-20 5 -20 10 0 6 -7 10 -15 10 -8 0 -15 -6 -15 -13 0 -7 -9 -18 -19 -24 -18
-11 -19 -10 -12 15 4 15 7 33 5 40 -1 7 0 8 3 2 2 -5 9 -10 14 -10 13 0 69 42
69 52 0 14 -47 9 -60 -7 -10 -12 -16 -13 -26 -4 -11 9 -18 8 -29 -1 -10 -9
-15 -9 -15 -1 0 6 -7 11 -15 11 -17 0 -20 25 -5 35 6 3 10 -1 10 -9 0 -23 56
-20 91 5 34 24 40 54 9 46 -18 -5 -25 4 -21 27 3 17 -30 56 -47 56 -10 0 -23
5 -30 12 -9 9 -15 9 -24 -1 -11 -10 -10 -15 5 -25 17 -13 24 -46 9 -46 -18 0
-53 33 -48 46 4 9 -3 18 -17 24 -12 5 -16 9 -9 9 6 1 12 7 12 15 0 7 7 19 15
26 13 11 15 9 13 -11 -3 -19 2 -23 30 -25 26 -1 32 2 32 18 0 16 -5 19 -20 15
-17 -4 -20 -2 -15 13 8 25 -6 31 -44 20 -27 -7 -31 -6 -31 11 0 10 5 19 11 19
7 0 8 12 4 33 -9 39 -10 41 -30 33 -13 -5 -13 -9 -3 -26 11 -17 10 -22 -2 -30
-11 -7 -16 -5 -18 5 -2 8 -8 15 -13 15 -5 0 -14 11 -19 25 -10 25 -24 32 -34
16z m-3566 -483 c0 -4 12 -8 28 -9 24 -1 24 -2 -8 -9 -20 -5 -39 -5 -44 1 -6
5 -13 9 -17 9 -9 0 -49 -64 -49 -79 0 -19 25 -12 35 11 14 31 33 34 44 6 7
-18 16 -23 42 -23 27 0 34 5 39 25 5 20 7 22 12 8 8 -19 -20 -48 -45 -48 -9 0
-17 -6 -17 -12 0 -7 -7 -21 -15 -31 -13 -18 -15 -17 -46 12 -36 35 -47 37 -75
17 -15 -12 -17 -17 -6 -27 9 -10 15 -10 24 -1 9 9 16 8 30 -5 20 -18 24 -33 8
-33 -6 0 -20 -8 -31 -19 -19 -17 -19 -20 -4 -35 18 -17 16 -19 -9 -10 -9 3
-16 12 -16 20 0 10 -11 12 -47 8 -53 -7 -72 -19 -57 -34 6 -6 22 -6 44 0 46
13 50 13 50 -5 0 -9 10 -20 23 -25 l22 -9 -22 0 c-29 -1 -31 -31 -3 -31 11 0
20 -4 20 -10 0 -5 9 -10 20 -10 11 0 20 -4 20 -9 0 -5 10 -11 23 -13 14 -2 22
-10 22 -22 0 -11 6 -21 14 -24 10 -3 13 2 9 21 l-5 26 28 -30 c20 -22 34 -29
49 -25 11 3 28 8 38 11 25 7 53 -25 45 -53 -5 -22 -33 -32 -33 -12 0 6 5 10
10 10 6 0 10 7 10 15 0 18 -26 20 -33 3 -4 -10 -7 -10 -14 0 -5 7 -35 13 -69
14 -32 2 -62 7 -66 12 -4 6 -12 5 -21 -2 -21 -17 -30 -2 -11 19 16 17 15 19
-2 26 -10 4 -19 2 -22 -5 -7 -21 -22 -13 -19 9 3 28 -21 37 -31 12 -7 -18 -8
-18 -24 -2 -14 15 -15 19 -2 29 7 7 11 17 7 24 -4 6 -8 18 -8 26 0 8 -7 15
-15 15 -11 0 -14 -9 -12 -31 3 -29 0 -32 -22 -30 -25 1 -38 16 -15 16 6 0 9 8
7 18 -2 9 -9 17 -16 17 -8 0 -20 15 -27 33 -12 28 -12 32 1 32 16 0 34 38 27
58 -8 19 -24 14 -30 -9 -4 -15 -11 -19 -27 -15 -64 18 -66 18 -66 2 0 -9 -4
-16 -10 -16 -17 0 -11 18 11 39 17 16 20 27 15 54 -5 26 -3 36 9 40 9 4 12 13
8 24 -6 17 -5 17 13 0 16 -15 17 -19 5 -27 -22 -13 -24 -54 -3 -73 16 -14 23
-15 45 -4 28 13 37 37 13 37 -8 0 -16 -6 -19 -12 -4 -10 -7 -10 -18 0 -12 11
-11 16 5 28 25 18 31 18 51 -3 14 -13 16 -28 12 -65 -7 -54 8 -73 24 -31 8 19
8 43 2 74 -8 42 -7 45 12 45 14 -1 19 4 17 18 -3 17 1 18 37 12 33 -5 41 -3
41 9 0 8 5 15 10 15 6 0 10 6 10 13 0 8 12 14 30 14 17 0 30 -4 30 -9z m3708
-88 c-9 -13 -6 -22 11 -39 11 -11 26 -21 31 -21 14 0 12 28 -2 33 -7 2 -10 8
-6 12 4 4 14 -2 23 -13 12 -13 27 -18 51 -16 37 3 47 -14 14 -23 -20 -5 -29
-33 -11 -33 5 0 7 -9 4 -20 -3 -12 0 -20 6 -20 7 0 11 -8 9 -17 -2 -12 4 -19
20 -21 12 -2 22 -10 22 -19 0 -11 6 -14 26 -9 17 5 23 3 19 -4 -8 -13 -55 -13
-55 0 0 6 -7 10 -15 10 -15 0 -45 48 -45 73 0 7 -6 25 -12 40 -15 32 -43 37
-35 7 5 -20 -18 -30 -25 -10 -4 13 -68 1 -68 -13 0 -6 -7 -19 -16 -28 -16 -17
-15 -19 10 -28 14 -6 26 -15 26 -21 0 -12 -49 16 -67 39 -17 20 -16 32 1 25
24 -9 29 17 7 37 -11 10 -22 19 -25 19 -2 0 -14 -16 -25 -36 -12 -20 -25 -34
-28 -30 -3 3 2 15 11 25 10 11 15 25 11 30 -3 6 1 11 9 11 9 0 16 7 16 15 0 8
-4 15 -10 15 -5 0 -10 5 -10 10 0 7 6 7 20 0 11 -6 20 -17 20 -25 0 -10 10
-15 30 -15 17 0 33 0 38 -1 4 0 8 7 10 15 2 9 -7 18 -22 22 -41 10 -28 38 18
40 21 2 23 -1 14 -16z m-992 -361 c0 -8 2 -24 2 -36 2 -27 17 -29 39 -8 9 10
23 13 37 9 27 -9 40 -28 21 -32 -18 -4 -20 -32 -2 -32 6 0 18 4 26 9 14 9 51
-19 51 -39 0 -15 -27 -12 -33 4 -7 18 -57 9 -57 -10 0 -8 10 -14 22 -14 14 0
19 -3 12 -10 -5 -5 -20 -7 -32 -3 -19 5 -22 10 -17 34 5 22 3 29 -9 29 -9 0
-16 5 -16 10 0 6 -7 10 -15 10 -20 0 -19 -19 1 -27 10 -4 14 -13 10 -28 -7
-28 22 -56 61 -59 23 -1 63 -26 63 -39 0 -2 -15 -1 -33 1 -32 4 -34 2 -34 -30
0 -18 5 -36 10 -40 7 -4 6 -12 -3 -23 -12 -15 -12 -19 5 -31 32 -21 55 -47 49
-53 -3 -3 -11 2 -18 12 -7 9 -20 17 -28 17 -8 0 -18 3 -21 7 -4 3 -20 8 -36 9
-23 3 -31 -1 -36 -17 -6 -17 -14 -19 -56 -16 -28 2 -52 -1 -55 -5 -8 -12 -24
1 -24 20 0 11 3 13 11 5 13 -13 59 -4 59 12 0 8 -10 15 -22 17 -15 2 -24 11
-26 26 -2 12 -8 22 -13 22 -5 0 -9 7 -9 15 0 8 5 15 10 15 6 0 10 -4 10 -10 0
-5 6 -10 14 -10 9 0 12 -7 9 -20 -4 -14 0 -20 11 -20 9 0 16 8 16 18 0 15 6
18 29 14 23 -3 29 0 34 20 8 31 -2 70 -17 65 -6 -2 -10 -17 -8 -33 3 -29 3
-29 -15 -9 -31 32 -36 55 -13 55 11 0 20 5 20 10 0 6 7 10 15 10 8 0 15 7 15
15 0 8 -5 15 -11 15 -8 0 -8 5 1 15 9 11 10 18 1 28 -6 8 -7 17 -3 21 4 4 0
13 -8 19 -17 14 -22 89 -6 84 6 -2 11 -10 12 -18z m60 -404 c-5 -18 -1 -27 14
-35 11 -6 20 -16 20 -22 0 -6 7 -20 17 -30 14 -16 14 -18 1 -18 -24 0 -53 -49
-38 -64 8 -8 16 -4 31 16 12 16 26 25 34 21 14 -5 19 8 18 45 -1 6 5 12 13 12
8 0 14 5 14 12 0 6 3 8 6 5 4 -4 2 -13 -4 -20 -7 -8 -9 -17 -5 -21 4 -4 -14
-27 -41 -52 -46 -45 -55 -70 -22 -68 9 1 16 -2 16 -7 0 -5 -4 -9 -10 -9 -5 0
-10 -7 -10 -15 0 -8 7 -15 15 -15 8 0 15 9 15 19 0 10 8 22 18 26 16 6 16 7
-1 20 -13 9 -15 15 -6 20 24 15 39 -41 17 -64 -11 -10 -9 -15 7 -28 19 -14 18
-15 -12 -8 -26 5 -33 3 -33 -9 0 -9 7 -16 15 -16 9 0 14 -8 12 -22 -1 -17 3
-23 16 -21 12 1 17 -4 13 -14 -9 -22 12 -53 37 -54 l22 0 -22 -9 c-13 -5 -23
-18 -23 -29 0 -11 -9 -21 -21 -24 -26 -7 -20 -33 7 -30 18 1 18 1 0 -13 -27
-19 -33 -18 -38 11 -4 18 3 35 23 58 l28 32 -29 23 c-17 13 -30 30 -30 38 0 8
-6 14 -13 14 -17 0 -38 -36 -31 -54 4 -11 0 -13 -15 -9 -11 3 -17 11 -15 18 3
7 0 16 -6 20 -9 6 -9 9 0 15 18 11 -8 46 -62 81 -42 28 -43 33 -5 30 9 -1 17
4 17 12 0 21 -12 28 -26 16 -15 -12 -43 0 -75 32 -10 10 -28 19 -39 19 -11 0
-20 5 -20 11 0 7 8 9 20 5 11 -3 29 -9 41 -12 17 -6 20 -3 17 12 -2 10 -10 18
-16 16 -7 -1 -17 10 -22 24 -6 14 -19 28 -30 31 -11 3 -20 10 -20 17 0 6 -6
23 -14 38 -29 56 14 43 46 -14 16 -28 27 -38 40 -35 10 3 18 1 18 -4 0 -5 -4
-9 -10 -9 -25 0 -7 -28 22 -34 37 -7 45 -2 28 19 -11 13 -8 15 24 13 41 -3 41
-3 21 -53 -17 -39 -12 -75 10 -75 21 0 45 -29 45 -56 0 -15 6 -24 15 -24 20 0
20 44 -1 75 -9 14 -22 25 -29 25 -20 0 -27 31 -10 49 26 30 24 94 -2 89 -11
-2 -23 6 -30 20 -16 31 -16 31 6 25 12 -3 20 2 24 16 3 12 8 21 12 21 4 0 4
-11 1 -25z m-635 -497 c13 -18 29 -42 34 -53 13 -24 45 -33 45 -12 0 8 -7 20
-15 27 -21 18 -19 27 8 25 12 -1 22 -6 22 -11 -1 -29 -17 -84 -25 -84 -6 0
-10 -7 -10 -16 0 -12 7 -14 33 -9 41 9 42 10 29 39 -8 19 -7 28 4 43 14 17 15
17 9 -4 -8 -28 26 -68 49 -60 11 4 16 1 16 -11 -1 -38 -48 -69 -65 -42 -4 6
-15 8 -25 5 -10 -3 -21 -1 -25 5 -4 6 -15 8 -26 5 -14 -5 -19 -2 -19 12 0 12
-12 23 -32 31 l-32 12 22 23 c23 25 29 47 12 47 -15 0 -48 -36 -52 -57 -2 -12
-11 0 -25 35 l-22 53 22 -16 c12 -8 27 -15 34 -15 18 0 16 27 -3 34 -8 3 -12
10 -9 16 10 16 20 12 46 -22z"/>
<path d="M1890 4770 c0 -5 -13 -16 -30 -25 -16 -9 -30 -23 -30 -31 0 -10 -6
-14 -15 -11 -17 7 -29 -8 -20 -23 5 -7 11 -8 19 -1 15 12 41 -3 32 -18 -4 -6
-2 -11 3 -11 19 0 12 -22 -9 -27 -11 -3 -20 -11 -20 -19 0 -10 -9 -9 -36 7
-24 13 -40 17 -47 10 -5 -5 -15 -7 -22 -5 -20 8 -27 -13 -10 -30 8 -8 11 -17
6 -20 -5 -3 -14 1 -21 9 -15 18 -40 20 -40 3 0 -6 -6 -3 -14 8 -12 15 -17 16
-27 7 -18 -18 30 -66 50 -50 12 10 14 9 8 -6 -5 -14 -2 -20 12 -24 19 -5 37
-53 20 -53 -5 0 -9 5 -9 11 0 6 -9 9 -20 6 -16 -4 -20 0 -20 19 0 14 -6 24
-14 24 -9 0 -14 -12 -14 -35 0 -19 4 -35 9 -35 5 0 9 -7 9 -15 0 -8 7 -15 15
-15 8 0 15 4 15 10 0 6 9 6 26 0 41 -16 45 -13 38 30 -6 36 -5 40 15 40 11 0
21 4 21 9 0 20 41 23 55 4 11 -15 16 -16 27 -5 11 11 10 15 -4 23 -24 14 -23
28 2 22 14 -4 20 0 20 11 0 9 -8 16 -17 16 -16 1 -16 2 1 15 11 8 23 15 28 15
11 0 10 -67 -1 -72 -5 -1 -12 -18 -16 -37 -5 -26 -4 -32 6 -29 8 3 14 11 14
19 0 8 8 23 18 33 10 13 17 36 17 63 0 40 -2 43 -26 43 -20 0 -24 4 -19 19 3
11 1 22 -5 26 -15 9 -12 45 3 45 19 0 50 37 42 49 -8 14 -25 14 -25 1z"/>
<path d="M4729 4603 c-1 -4 -2 -12 -4 -18 -1 -5 -3 -15 -3 -21 -1 -7 -13 -15
-26 -18 -13 -3 -40 -20 -60 -38 -28 -24 -33 -34 -24 -45 17 -21 0 -29 -20 -9
-12 14 -14 20 -4 23 17 7 15 33 -3 33 -8 0 -15 -6 -15 -13 0 -8 -9 -22 -20
-32 -11 -10 -20 -29 -20 -43 0 -14 -11 -40 -25 -58 -29 -38 -30 -44 -11 -44
14 0 49 37 60 63 3 9 7 8 15 -3 22 -32 86 35 74 80 -3 11 0 20 6 20 6 0 11 7
11 15 0 8 4 15 9 15 5 0 16 3 25 6 11 4 16 1 16 -10 0 -9 -12 -21 -26 -26 -37
-14 -21 -29 29 -25 36 3 42 7 40 24 -2 13 3 21 13 21 11 0 13 -6 9 -19 -5 -15
1 -24 24 -35 37 -20 55 -1 22 23 -15 11 -20 23 -15 35 5 12 1 19 -14 23 -15 3
-21 12 -19 27 1 11 -3 20 -9 19 -7 -1 -11 5 -10 14 1 16 -23 32 -25 16z"/>
<path d="M4680 4381 c0 -5 4 -21 10 -35 5 -15 6 -26 1 -26 -5 0 -11 6 -14 13
-3 8 -16 0 -35 -20 -33 -35 -52 -42 -52 -19 0 8 -8 17 -17 20 -10 3 -1 3 20 0
28 -4 37 -1 37 9 0 17 -21 27 -54 27 -14 0 -28 -11 -40 -30 -13 -24 -23 -30
-44 -28 -19 2 -27 -2 -27 -12 0 -9 7 -14 18 -12 27 5 23 -53 -5 -72 -18 -13
-20 -18 -10 -28 10 -10 14 -10 21 1 7 10 12 10 28 0 23 -14 57 -5 50 14 -2 6
-12 12 -22 12 -10 0 -20 5 -22 12 -5 14 14 26 22 14 3 -6 19 -2 39 10 l33 19
11 -25 c7 -14 12 -32 12 -40 0 -8 5 -15 12 -15 6 0 -6 -16 -28 -35 -36 -32
-74 -51 -46 -23 7 7 12 18 12 25 0 22 -26 14 -40 -12 -12 -22 -11 -27 6 -40
26 -20 40 -19 64 5 11 11 20 16 20 10 0 -5 7 -10 16 -10 9 0 14 7 12 18 -4 21
42 62 70 62 18 0 20 5 17 34 -7 51 21 56 29 5 4 -27 11 -39 22 -39 13 0 15 7
11 33 -5 30 4 64 14 55 3 -1 15 7 27 18 28 27 12 42 -20 20 -19 -14 -23 -14
-34 2 -10 14 -14 14 -29 2 -15 -12 -18 -12 -26 3 -6 10 -16 14 -27 10 -14 -6
-15 -4 -5 8 10 13 10 21 0 42 -11 26 -37 37 -37 18z"/>
<path d="M1975 4360 c-3 -5 -3 -11 2 -12 4 0 13 -2 18 -3 6 -2 16 -3 24 -4 11
-1 11 -5 -2 -19 -10 -10 -17 -24 -17 -30 0 -7 -4 -12 -10 -12 -16 0 -12 -27 5
-34 22 -8 18 -25 -5 -19 -14 4 -20 0 -20 -11 0 -9 8 -16 20 -16 13 0 19 -6 17
-17 -1 -10 3 -19 8 -20 6 -2 10 5 11 15 4 59 3 58 20 40 10 -10 13 -21 8 -29
-15 -25 -11 -62 8 -67 19 -5 25 -22 8 -22 -5 0 -10 -7 -10 -15 0 -8 7 -15 15
-15 8 0 15 6 15 13 0 7 9 23 20 35 25 26 25 39 3 45 -17 4 -17 5 0 6 21 1 23
31 2 31 -8 0 -15 -4 -15 -10 0 -5 -5 -10 -11 -10 -5 0 -7 4 -4 10 9 15 -24 58
-51 64 -30 8 -30 18 -1 46 20 19 22 27 13 46 -11 25 -59 34 -71 14z"/>
<path d="M2010 4116 c0 -7 -9 -16 -21 -19 -12 -3 -18 -10 -14 -17 5 -7 -3 -10
-22 -8 -26 3 -28 1 -27 -34 1 -28 -4 -38 -18 -41 -28 -8 -22 -30 6 -25 17 3
23 1 19 -8 -3 -7 5 -14 19 -16 13 -2 23 -9 23 -17 0 -18 21 -26 30 -12 4 7 17
0 33 -17 20 -22 33 -27 50 -23 31 8 29 25 -3 29 -29 4 -30 8 -11 27 11 11 21
12 49 3 31 -9 34 -13 24 -29 -15 -25 1 -39 18 -15 9 11 20 16 30 12 24 -9 72
44 80 88 6 29 10 34 20 26 16 -13 55 7 55 27 0 16 -16 17 -25 2 -4 -6 -19 -7
-37 -4 -22 5 -29 3 -27 -7 1 -7 -3 -26 -9 -41 -7 -16 -12 -32 -12 -37 0 -17
-47 -22 -72 -9 -12 7 -28 12 -35 11 -7 -2 -9 5 -6 18 4 14 0 20 -11 20 -9 0
-16 -4 -16 -10 0 -5 -7 -7 -15 -4 -9 4 -19 -3 -27 -20 -8 -19 -14 -23 -20 -14
-14 22 -9 38 12 38 13 0 20 7 20 19 0 11 5 23 10 26 13 8 2 27 -13 22 -7 -2
-12 -10 -12 -18 -1 -8 -7 -13 -15 -11 -8 2 -20 -5 -27 -14 -8 -11 -13 -13 -13
-5 0 9 -8 11 -25 7 -21 -5 -25 -3 -25 14 0 17 3 19 19 10 28 -15 51 -12 51 5
0 8 -7 15 -16 15 -8 0 -13 4 -10 9 3 5 15 7 26 4 17 -5 20 0 20 26 0 21 -5 31
-15 31 -8 0 -15 -6 -15 -14z"/>
<path d="M4584 4048 c-4 -7 -2 -14 4 -16 20 -6 13 -22 -9 -22 -14 0 -19 -5
-16 -14 3 -7 1 -18 -5 -24 -8 -8 -8 -15 1 -25 6 -8 10 -25 9 -38 -3 -20 2 -24
25 -24 36 -1 46 14 22 32 -18 13 -18 13 1 15 10 0 24 2 31 2 19 2 56 47 47 56
-5 4 -18 10 -28 12 -11 1 -21 8 -23 15 -3 7 3 10 15 6 20 -5 39 12 24 21 -20
12 -91 15 -98 4z"/>
<path d="M3656 3712 c-11 -11 -6 -34 7 -29 6 2 25 -2 41 -10 21 -11 25 -17 16
-23 -12 -8 -32 -5 -55 9 -5 3 -16 6 -23 7 -8 2 -19 10 -26 20 -8 11 -18 14
-26 9 -11 -6 -10 -10 2 -19 23 -17 30 -46 13 -52 -8 -4 -15 -12 -15 -20 0 -8
-4 -14 -9 -14 -11 0 -23 29 -16 40 8 13 -34 45 -45 34 -7 -7 -4 -16 9 -28 11
-10 17 -24 14 -32 -3 -8 2 -21 12 -27 9 -7 15 -22 13 -33 -2 -12 3 -19 12 -19
8 0 14 7 12 16 -1 11 4 16 14 15 9 0 19 5 21 12 3 6 -3 12 -12 12 -14 0 -15 3
-5 15 7 8 19 15 26 15 8 0 14 7 14 15 0 17 16 20 25 4 4 -6 13 -8 21 -5 8 3
23 -4 33 -15 20 -22 46 -17 37 7 -3 8 -1 14 4 14 6 0 10 14 10 31 0 26 -3 30
-19 26 -11 -3 -28 1 -38 8 -22 15 -60 25 -67 17z"/>
<path d="M2515 3562 c-12 -13 -3 -32 15 -32 11 0 20 -7 20 -15 0 -9 14 -22 31
-29 19 -8 27 -16 20 -20 -6 -4 -11 -17 -12 -29 0 -18 -3 -16 -15 11 -22 50
-38 41 -30 -18 9 -66 16 -82 32 -76 23 9 26 -12 3 -24 -32 -18 -8 -37 26 -22
33 15 42 15 28 1 -9 -9 -8 -18 4 -35 23 -36 33 -29 27 20 -5 36 -3 47 15 65
11 11 30 21 41 21 12 0 20 7 20 16 0 12 -6 15 -24 10 -14 -3 -28 -1 -31 4 -4
6 -1 9 6 8 7 -2 15 5 17 15 3 15 -2 18 -29 15 -40 -4 -61 -32 -37 -50 14 -12
14 -16 -4 -43 -11 -16 -17 -22 -14 -12 4 12 -1 21 -17 27 -12 5 -17 9 -11 9 6
1 16 19 23 41 6 22 16 40 21 40 25 0 5 27 -33 45 -28 13 -42 26 -42 39 0 13
-8 20 -23 21 -12 1 -24 -1 -27 -3z"/>
</g>
</svg>
