<?xml version="1.0" standalone="no"?>
<!DOCTYPE svg PUBLIC "-//W3C//DTD SVG 20010904//EN"
 "http://www.w3.org/TR/2001/REC-SVG-20010904/DTD/svg10.dtd">
<svg version="1.0" xmlns="http://www.w3.org/2000/svg"
 width="472.000000pt" height="472.000000pt" viewBox="0 0 472.000000 472.000000"
 preserveAspectRatio="xMidYMid meet">
<metadata>
Created by potrace 1.16, written by Peter Selinger 2001-2019
</metadata>
<g transform="translate(0.000000,472.000000) scale(0.100000,-0.100000)"
fill="#cf7316" stroke="none">
<path d="M1075 4126 l-1010 -584 0 -1183 0 -1183 815 -471 c448 -258 906 -522
1016 -586 l202 -117 1018 588 1019 588 3 1180 2 1179 -1011 584 c-557 321
-1019 585 -1028 586 -9 2 -470 -260 -1026 -581z m1515 -332 l478 -829 -965 -3
c-532 -1 -968 0 -970 2 -2 2 213 380 479 840 266 461 486 832 491 827 5 -5
224 -381 487 -837z m-592 768 c-262 -463 -915 -1582 -923 -1582 -14 0 -934
533 -937 543 -3 8 1867 1095 1885 1096 50 1 -7 -25 -25 -57z m1155 -506 c504
-291 915 -531 913 -534 -6 -6 -951 -551 -952 -549 -21 33 -944 1638 -944 1642
0 9 16 -1 983 -559z m-2577 -843 c247 -143 457 -264 466 -269 15 -8 -46 -118
-448 -814 -256 -443 -472 -816 -479 -830 -12 -22 -14 128 -15 1079 0 908 2
1102 13 1098 7 -3 216 -122 463 -264z m3512 -1371 l-3 -549 -473 819 c-260
451 -472 821 -470 823 2 2 215 125 473 274 l470 272 3 -545 c1 -299 1 -792 0
-1094z m-1075 981 c-599 -1039 -906 -1569 -911 -1575 -5 -5 -732 1240 -935
1604 l-39 68 971 0 970 0 -56 -97z m-1439 -764 c263 -457 476 -832 474 -835
-3 -2 -437 -3 -965 -2 l-960 3 481 833 c264 457 483 832 486 832 3 -1 220
-374 484 -831z m2025 -13 c260 -450 471 -820 468 -822 -2 -2 -436 -3 -964 -2
l-961 3 481 833 c379 657 483 830 492 820 7 -7 225 -381 484 -832z m-1519
-1426 c0 -302 -2 -550 -5 -550 -5 0 -1894 1088 -1904 1096 -2 2 426 4 952 4
l957 0 0 -550z m1934 542 c-9 -9 -1869 -1084 -1886 -1090 -4 -2 -8 244 -8 547
l0 551 952 0 c524 0 948 -4 942 -8z"/>
</g>
</svg>
