<?xml version="1.0" standalone="no"?>
<!DOCTYPE svg PUBLIC "-//W3C//DTD SVG 20010904//EN"
 "http://www.w3.org/TR/2001/REC-SVG-20010904/DTD/svg10.dtd">
<svg version="1.0" xmlns="http://www.w3.org/2000/svg"
 width="370.000000pt" height="367.000000pt" viewBox="0 0 370.000000 367.000000"
 preserveAspectRatio="xMidYMid meet">
<metadata>
Created by potrace 1.16, written by Peter Selinger 2001-2019
</metadata>
<g transform="translate(0.000000,367.000000) scale(0.100000,-0.100000)"
fill="#000000" stroke="none">
<path d="M1100 3262 c-382 -224 -704 -414 -716 -422 -11 -8 -60 -98 -109 -200
l-90 -185 -3 -819 -2 -820 90 -189 c50 -104 97 -195 105 -203 8 -8 173 -107
366 -220 315 -183 356 -205 391 -202 37 3 17 16 -346 227 l-384 224 -75 156
c-41 86 -73 157 -72 159 2 2 775 -240 1068 -335 40 -12 91 -54 280 -224 184
-165 238 -209 259 -209 16 0 28 2 28 4 0 3 -108 102 -239 221 l-239 216 106
188 c59 103 208 366 332 584 l225 397 671 0 c529 0 673 -3 676 -12 3 -7 65
-268 139 -580 l134 -568 3 84 c3 77 -7 122 -117 589 l-120 506 120 503 c111
466 119 509 117 588 l-3 85 -129 -545 c-71 -300 -133 -560 -138 -577 l-9 -33
-673 0 -672 0 -327 575 c-180 316 -328 579 -329 584 -3 8 866 799 888 808 6 2
320 -176 697 -397 378 -220 689 -400 692 -400 3 0 5 10 5 23 0 19 -97 79 -690
425 l-690 402 -263 -1 -262 -1 -695 -406z m1110 334 c-62 -61 -814 -738 -835
-751 -28 -18 -1106 -358 -1113 -351 -6 7 124 282 144 304 6 8 326 197 710 422
l699 408 215 1 215 1 -35 -34z m-510 -1378 c179 -314 326 -577 328 -584 4 -18
-648 -1164 -662 -1164 -6 -1 -264 79 -574 177 l-562 177 2 805 3 804 560 178
c308 98 565 178 570 178 6 1 156 -256 335 -571z"/>
<path d="M3323 222 c-354 -206 -370 -217 -333 -220 35 -3 72 16 358 183 175
102 327 191 336 198 10 8 16 22 14 35 -3 19 -41 -1 -375 -196z"/>
</g>
</svg>
