<?xml version="1.0" standalone="no"?>
<!DOCTYPE svg PUBLIC "-//W3C//DTD SVG 20010904//EN"
 "http://www.w3.org/TR/2001/REC-SVG-20010904/DTD/svg10.dtd">
<svg version="1.0" xmlns="http://www.w3.org/2000/svg"
 width="458.000000pt" height="472.000000pt" viewBox="0 0 458.000000 472.000000"
 preserveAspectRatio="xMidYMid meet">
<metadata>
Created by potrace 1.16, written by Peter Selinger 2001-2019
</metadata>
<g transform="translate(0.000000,472.000000) scale(0.100000,-0.100000)"
fill="#000000" stroke="none">
<path d="M1217 4150 c-104 -50 -195 -97 -203 -105 -18 -18 -812 -1378 -831
-1423 -11 -27 -13 -86 -11 -280 l3 -247 415 -710 415 -710 190 -95 190 -95
835 0 835 0 185 91 185 91 418 717 417 716 0 259 0 260 -407 698 c-225 384
-415 707 -423 719 -8 11 -98 60 -200 109 l-185 90 -820 3 -820 2 -188 -90z
m1986 -533 c98 -312 178 -570 176 -571 -13 -12 -1153 -656 -1161 -656 -19 0
-1158 653 -1158 664 -1 6 79 264 177 574 l177 562 805 -2 804 -3 180 -568z
m-2003 37 c-89 -280 -168 -531 -177 -558 -13 -41 -73 -112 -390 -465 -207
-229 -384 -425 -394 -436 -19 -19 -19 -15 -19 196 l0 215 411 706 412 706 156
75 c86 41 157 73 159 72 1 -1 -70 -231 -158 -511z m2050 433 l144 -72 413
-709 413 -708 -2 -211 -3 -211 -361 400 c-198 219 -375 416 -394 437 -29 33
-54 103 -206 585 -96 301 -174 550 -174 555 0 15 29 4 170 -66z m-1447 -1517
l397 -225 0 -672 c0 -631 -1 -672 -17 -677 -10 -3 -268 -64 -573 -136 -305
-72 -560 -133 -567 -135 -7 -2 -178 281 -417 691 l-406 695 406 449 405 448
188 -106 c103 -59 366 -208 584 -332z m2007 -10 c216 -239 394 -440 397 -446
2 -7 -778 -1364 -801 -1391 -1 -1 -1120 264 -1148 273 -17 5 -18 46 -18 678
l0 672 583 331 c320 183 585 329 588 325 4 -4 183 -203 399 -442z m-1025
-1735 c313 -75 570 -137 572 -138 1 -2 -71 -38 -160 -80 l-162 -77 -820 0
-820 1 -160 78 -160 78 215 51 c286 69 914 220 920 221 3 1 262 -60 575 -134z"/>
</g>
</svg>
