<?xml version="1.0" standalone="no"?>
<!DOCTYPE svg PUBLIC "-//W3C//DTD SVG 20010904//EN"
 "http://www.w3.org/TR/2001/REC-SVG-20010904/DTD/svg10.dtd">
<svg version="1.0" xmlns="http://www.w3.org/2000/svg"
 width="434.000000pt" height="472.000000pt" viewBox="0 0 434.000000 472.000000"
 preserveAspectRatio="xMidYMid meet">

<g transform="translate(0.000000,472.000000) scale(0.100000,-0.100000)"
fill="#cf7316" stroke="none">
<path d="M1028 2372 l-1026 -1777 1023 -3 c563 -1 1487 -1 2054 0 l1032 3
-1022 1770 c-562 974 -1024 1773 -1028 1777 -4 4 -468 -792 -1033 -1770z m995
-553 c-15 -15 -1908 -1137 -1912 -1134 -2 2 428 751 955 1665 l959 1660 3
-1092 c1 -600 -1 -1095 -5 -1099z m1028 523 c526 -911 956 -1658 954 -1660 -1
-1 -435 254 -964 569 l-961 571 0 1096 c0 602 3 1092 7 1089 4 -4 437 -753
964 -1665z m-18 -1138 l957 -569 -964 -3 c-530 -1 -1401 -1 -1934 0 l-970 3
962 572 c528 315 968 571 976 569 9 -2 446 -259 973 -572z"/>
</g>
</svg>
